<?xml version="1.0" encoding="utf-8"?>
<!-- Generator: Adobe Illustrator 21.0.2, SVG Export Plug-In . SVG Version: 6.00 Build 0)  -->
<svg version="1.1" id="Capa_1" xmlns="http://www.w3.org/2000/svg" xmlns:xlink="http://www.w3.org/1999/xlink" x="0px" y="0px"
	 viewBox="0 0 1000 1000" style="enable-background:new 0 0 1000 1000;" xml:space="preserve">
<style type="text/css">
	.st0{fill:#333233;}
	.st1{fill:#FFFFFF;}
</style>
<circle class="st0" cx="480.2" cy="501.2" r="381.1"/>
<g>
	<path class="st1" d="M469.8,785.3V292.5l-80.6,47.2c-3.3,2.2-7.6,3.3-13,3.3c-5.4,0-10.1-3.3-13.8-9.8c-6.5-11.9-4.1-20.9,7.3-26.9
		l110-66.8c4.3-2.7,9.5-3.3,15.5-1.6c11.4,3.3,16,11.1,13.8,23.6v523.8c0,5.4-1.9,10.1-5.7,13.8c-3.8,3.8-8.4,5.7-13.8,5.7
		c-5.4,0-10.1-1.9-13.8-5.7C471.7,795.3,469.8,790.7,469.8,785.3z"/>
</g>
</svg>
