<?xml version="1.0" encoding="utf-8"?>
<!-- Generator: Adobe Illustrator 21.0.2, SVG Export Plug-In . SVG Version: 6.00 Build 0)  -->
<svg version="1.1" id="Capa_1" xmlns="http://www.w3.org/2000/svg" xmlns:xlink="http://www.w3.org/1999/xlink" x="0px" y="0px"
	 viewBox="0 0 1000 1000" style="enable-background:new 0 0 1000 1000;" xml:space="preserve">
<style type="text/css">
	.st0{fill:#333233;}
	.st1{fill:#FFFFFF;}
</style>
<circle class="st0" cx="480.2" cy="501.2" r="381.1"/>
<g>
	<path class="st1" d="M322.6,770c-7.9-9.3-7.6-18.1,0.7-26.5L564,526.5c29.4-27,44.2-58.5,44.2-94.6c0-36.1-12.3-67.7-36.8-94.9
		c-24.5-27.2-55.2-40.8-92-40.8s-68,11.3-93.5,33.9l-25,22.8c-3.9,3.4-8.3,5.2-13.2,5.2c-4.9,0-9-2-12.1-5.9
		c-3.2-3.9-4.8-8.3-4.8-13.2c0-4.9,2-8.8,5.9-11.8l25-23.6c32.9-28.9,72.6-43.4,119.2-43.4c46.6,0,86.1,18.4,118.5,55.2
		c29.4,31.4,44.2,70.4,44.2,117c0,46.6-18.4,86.8-55.2,120.7L382.2,739.1h243.6c4.9,0,9.1,1.8,12.5,5.5c3.4,3.7,5.2,8,5.2,12.9
		c0,4.9-1.7,9.1-5.2,12.5c-3.4,3.4-7.6,5.2-12.5,5.2h-290C329.9,775.2,325.5,773.5,322.6,770z"/>
</g>
</svg>
