<?xml version="1.0" encoding="utf-8"?>
<!-- Generator: Adobe Illustrator 21.0.2, SVG Export Plug-In . SVG Version: 6.00 Build 0)  -->
<svg version="1.1" id="Capa_1" xmlns="http://www.w3.org/2000/svg" xmlns:xlink="http://www.w3.org/1999/xlink" x="0px" y="0px"
	 viewBox="0 0 1000 1000" style="enable-background:new 0 0 1000 1000;" xml:space="preserve">
<style type="text/css">
	.st0{fill:#333233;}
	.st1{fill:#FFFFFF;}
</style>
<circle class="st0" cx="480.2" cy="501.2" r="381.1"/>
<g>
	<path class="st1" d="M628.6,272.1c-0.5,2.1-1.8,4.1-3.8,6.1L485.7,421.2c35.8,7.2,66.6,23.6,92.2,49.2c35.3,35.3,53,78.4,53,129.1
		s-17.9,93.9-53.8,129.5c-35.9,35.6-78.9,53.4-129.1,53.4c-50.2,0-93-17.9-128.3-53.8c-3.6-3.6-5.4-8.1-5.4-13.4
		c0-5.4,1.8-9.9,5.4-13.4c3.6-3.6,7.9-5.4,13.1-5.4c5.1,0,9.7,1.8,13.8,5.4c28.7,27.7,62.7,41.5,102.2,41.5
		c39.4,0,73.2-13.9,101.4-41.9c28.2-27.9,42.3-61.9,42.3-101.8s-14-73.9-41.9-101.8c-27.9-27.9-61.9-41.9-101.8-41.9
		c-6.1,0-11.3-2.6-15.4-7.7h-0.8c-4.1-3.6-6.1-8.2-6.1-13.8c0-5.6,2-10.2,6.1-13.8l133.7-137.5H360.4c-5.1,0-9.6-1.8-13.4-5.4
		c-3.8-3.6-5.8-8.2-5.8-13.8c0-5.6,1.9-10.2,5.8-13.8c3.8-3.6,8.3-5.4,13.4-5.4h251.2c5.6,0,10.2,1.8,13.8,5.4
		c3.6,3.6,5.4,7.7,5.4,12.3S630.1,270.1,628.6,272.1z"/>
</g>
</svg>
