<?xml version="1.0" encoding="utf-8"?>
<!-- Generator: Adobe Illustrator 21.0.2, SVG Export Plug-In . SVG Version: 6.00 Build 0)  -->
<svg version="1.1" id="Capa_1" xmlns="http://www.w3.org/2000/svg" xmlns:xlink="http://www.w3.org/1999/xlink" x="0px" y="0px"
	 viewBox="0 0 1000 1000" style="enable-background:new 0 0 1000 1000;" xml:space="preserve">
<style type="text/css">
	.st0{fill:#020203;}
	.st1{fill:#FFFFFF;}
	.st2{fill:none;}
</style>
<path class="st0" d="M490.1,395.3l-2.6,23.1l-1.1,52.9l-2.2,20.6c0,0-2.9,15.6-2.4,17.6c0.4,2,1.1,2,4.1,2s29-1.3,31.9-1.8
	c2.9-0.4,2-5.7,2-5.7s-3.1-24.4-3.1-26.4s-0.7-35.8-0.2-41.1s3.5-33.8,3.4-35.1c-0.1-1.3-1-5.5-1-5.5l-1.2-1.9c0,0,0.5,2-2.3,3.5
	c-2.9,1.5-8.3,3.5-8.6,4.4c-0.2,0.9-3.7,2.2-3.7,2.2s-3.1-2.2-4.2-3.7c-1.1-1.5-5.9-6.4-5.9-6.4L490.1,395.3z"/>
<g>
	<title>Layer 1</title>
	<g id="layer1_2_">
		<path id="path2453_2_" class="st1" d="M503.3,737.9c-2.8-0.6-4-1.6-4-3.4c0-0.9-0.6-1.7-1.8-2.3c-1.5-0.8-1.8-1.3-1.8-3
			c0-1.7-0.4-2.5-2.1-3.9c-2.5-2.2-2.6-3.4-0.8-8.6c1.1-3.3,1.2-3.8,0.3-4.7c-0.8-0.9-0.8-2.3-0.4-10.2l0.5-9.2l3.4-8.3l3.4-8.3
			l0.2-12.7c0.1-8,0.5-14.5,1.1-17.4c1.2-6.3,0.8-34.4-0.5-39.1c-1.5-5.5-3.3-16.9-3.6-23.9c-0.2-3.7-0.5-7.2-0.6-7.7
			c-0.5-1.6-5.4,8.2-7.8,15.7c-3.3,10-4.6,14.6-5.9,21.2c-0.7,3.2-1.6,6.5-2.1,7.5c-0.5,1-0.9,2.7-0.9,4c0,1.2-0.4,4-0.9,6.1
			c-1.2,5.3-1.1,9,0.3,20.2c0.7,5.3,1.5,14.5,1.8,20.6c0.3,6,0.9,14.9,1.3,19.8c0.7,8.1,0.9,9.1,2.5,11.8c3.1,5.1,3.8,8.2,3.8,15.4
			c0,3.6-0.2,8.1-0.4,10.1l-0.4,3.5l-4.7,0.8c-3.6,0.6-5.6,0.6-8.2,0.2c-3.5-0.6-3.5-0.6-6.2,1.3c-1.5,1.1-3.3,2.2-4,2.4
			c-2.5,0.8-15.1,0.4-20-0.6c-6-1.2-6.7-1.8-5.1-4.4c1.6-2.6,2.6-3.2,7.5-4.7c4.9-1.5,9.1-4,10.9-6.5c1.2-1.7,1.2-1.9,0.4-3.2
			c-2.1-3.2-3.6-20.7-4.2-48.3l-0.4-17.4l-2.7-12.1c-1.5-6.7-3-13.6-3.5-15.4c-0.7-2.8-0.7-4.1,0-9.5c1.2-8.5,2.7-22.6,3.3-30.7
			l0.5-6.8l-3.4-4.6c-3.4-4.5-3.4-4.6-3.9-9.8c-0.4-4.3-0.2-6,0.8-9.9c1.4-5.2,1.1-8.1-0.9-10.9c-2.9-3.9-1.7-46,1.7-63
			c0.9-4.5,1.1-7.1,0.8-10.9c-0.2-2.8-0.1-6.9,0.2-9.2c0.8-5.3,3.4-25.1,4.2-31.9c0.4-3.6,1.1-6.1,2.1-8c0.8-1.5,1.8-3.7,2.3-4.9
			c0.6-1.4,1.2-2.2,1.9-2.2c0.6,0,3.9-1.2,7.3-2.7c3.4-1.5,8.5-3.3,11.4-4.1c8.4-2.4,10.7-3.7,13.5-7.5c2.3-3.1,2.2-5.1-0.1-6.8
			c-1.1-0.8-1.8-1.8-1.8-2.7c0-0.7-0.7-2-1.5-2.7c-2-1.9-2.9-4.9-2.5-8.7c0.3-2.7,0-4.1-1.7-9.4c-2.3-7-2.3-8.6,0.1-13.4
			c1.9-3.8,6.9-9.1,9.9-10.5c1.9-0.9,3.7-1.2,7.3-1.2c11.2,0,18.9,5.2,22.7,15.2c1.1,2.8,1.2,4.1,0.9,7.2c-0.5,4.5-0.5,4.5,0,9.2
			c0.3,3.3,0.2,3.8-1.8,7.1c-1.4,2.3-2,4-1.8,4.8c0.2,0.9-0.2,1.7-1.1,2.6c-1.8,1.7-1.9,4.2-0.3,6.8l1.2,1.9l-1.2-0.3
			c-1-0.3-1.2,0-1.2,1.1c0,1.1-0.8,1.9-3.3,3.5c-1.8,1.1-4.5,2.8-6,3.7c-2.6,1.6-2.7,1.7-1.6,2.5c2.8,1.9,2.8,2,0.3,4.7
			c-2.8,3.1-3,4.3-1.2,10.5c1.1,3.7,1.3,6.3,1.5,18.8c0.1,8,0.1,22.6-0.2,32.5l-0.5,18l-5,3.8l-5,3.8l-4.3-4.7
			c-3.9-4.2-4.3-4.9-4.3-7.1c0-3.1,2.1-29.5,3.3-40.5c1.1-10.5,4.6-26.8,6.3-29.2c1.7-2.4,1.6-4.8-0.4-6.8l-1.6-1.7l2.3-1.5
			c1.2-0.8,2.6-1.5,3-1.5c1.8,0,1.9-1.2-2.8-5.8l-5.9-5.1l-0.9,2.2c-0.5,1.3-0.9,4.1-0.9,7.1c0,2.7-0.3,6.4-0.6,8.1
			c-0.3,1.8-0.8,16.6-1.1,32.8c-0.6,31.7-1.1,39.4-3.3,53.2c-2,12-2,11.4,1.3,11.9c6.8,1,31.4-1.1,33.1-2.9
			c0.2-0.2-0.6-4.8-1.9-10.3c-3.3-14.7-3.6-19.5-2.8-41.4c0.6-17.1,2.8-42.4,4.3-50.4c0.3-1.8,0.6-4.4,0.6-5.8l0-3.3l2.3,3.3
			c1.4,1.6,3.9,3.3,6.4,4.4c2.2,1,8.4,4,13.8,6.7c9.4,4.7,9.9,5,10.5,7.1c0.4,1.2,0.9,2.3,1.2,2.5c0.5,0.3,2.2,5.5,3.9,12
			c0.5,1.8,0.8,6.2,0.8,10.6c0,4.1,0.3,9.5,0.6,11.9s0.8,8.2,1.2,12.7c0.3,4.6,0.8,11.2,1.1,14.8c1.2,13.8,1.3,17.8,0.3,29.9
			c-0.6,6.7-1.1,16.1-1.3,21c-0.2,8-0.4,9.2-1.7,11.8c-0.8,1.6-1.5,3.4-1.5,4c0,0.6-0.6,1.4-1.4,1.7c-1.1,0.5-1.5,1.2-1.8,3.7
			c-0.2,1.7-0.4,4-0.4,5.1c0,2.9-3.7,10.5-5.5,11.2c-0.7,0.3-3.5,1-6,1.5c-2.6,0.5-4.8,1-4.8,1.1c-0.1,0.1-0.6,2.8-1.1,6.1
			c-1,6.1-3.5,15.6-4.5,17.6c-0.3,0.6-1.1,5.6-1.8,11c-1,8.5-1.1,13.6-1.1,38.4c0.1,39.3-1,58.1-3.6,64.5c-1.8,4.3-5.1,10-6.9,11.8
			c-0.9,0.9-1.3,1.7-0.9,2.1c0.3,0.4,1.3,1.9,2.2,3.3c0.9,1.4,2.2,3.3,2.8,4.3c2.6,3.8-0.4,5.6-9.9,6
			C508.4,738.2,504.6,738.1,503.3,737.9z M454.3,563.3c0.9-0.9,1-9.3,0.1-9.3c-1,0-1.8,2.8-1.8,6.5C452.6,564,453,564.6,454.3,563.3
			z M539.8,558.1c1.3-2.5,1.1-4.2-0.6-6.2l-1.5-1.8l0,4.9C537.8,560.1,538.3,561,539.8,558.1z M542.5,505.7
			c-0.9-14.3-1.6-22-2.3-24.8c-0.3-1.3-0.6-3.7-0.6-5.3c0-2.9-0.8-5.1-1.5-4.3c-0.2,0.2-0.4,4-0.5,8.6c-0.1,6.8,0.1,9.6,1.5,16.5
			c0.9,4.6,1.9,9.2,2.2,10.3c0.3,1.1,0.6,6.4,0.6,11.6c0,5.2,0.2,10.8,0.4,12.4C543.1,535.6,543.2,517.6,542.5,505.7z"/>
	</g>
</g>
<g>
	<path class="st1" d="M278.7,158.2c0.2,12.1-2.2,21.9-7,29.6c-4.9,7.7-10.8,13.6-17.8,18c-7,4.3-14.4,7.3-22.1,8.9
		c-7.8,1.6-14.3,2.4-19.7,2.4h-44.8V30.7h53.1c5.6,0,10.9,1.1,15.9,3.3c5.1,2.2,9.5,5.2,13.2,8.9c3.7,3.7,6.7,8.1,8.9,13.2
		c2.2,5.1,3.3,10.4,3.3,15.9c0,6.1-0.9,11.5-2.6,16.1c-1.7,4.6-3.8,8.5-6.2,11.6c-2.4,3.2-5,5.6-7.8,7.3c-2.8,1.7-5.2,2.7-7.3,2.9
		c7.7,1.5,14.5,4.2,20.4,8c5,3.3,9.6,8.1,13.8,14.5C276.3,139,278.5,147.5,278.7,158.2z M233,77.2c0-6.7-2.3-12.4-6.9-16.9
		s-10.2-6.9-16.9-6.9h-13.8v48h13.8c6.7,0,12.4-2.3,16.9-7C230.7,89.6,233,83.9,233,77.2z M249.1,159.1c0-4.8-0.9-9.3-2.7-13.6
		c-1.8-4.3-4.3-8.1-7.5-11.3c-3.2-3.3-6.9-5.8-11.2-7.6c-4.3-1.8-8.9-2.7-13.6-2.7h-18.7v71H214c4.8,0,9.3-1,13.6-2.9
		c4.3-1.9,8-4.5,11.2-7.6s5.6-6.9,7.5-11.2C248.2,168.7,249.1,164.1,249.1,159.1z"/>
	<path class="st1" d="M406.8,27.5c3.4,0,7,0.3,10.6,0.9c3.6,0.6,7.1,1.2,10.3,2c3.3,0.8,6.2,1.6,8.9,2.4c2.7,0.9,4.7,1.7,6,2.4V66
		c-2.3-1.9-5-3.6-8-5c-3.1-1.4-6.2-2.7-9.5-3.7c-3.3-1.1-6.5-1.9-9.8-2.4c-3.3-0.6-6.2-0.9-8.9-0.9c-9,0-17.6,1.7-25.9,5
		c-8.2,3.4-15.5,8.1-21.7,14.4c-6.2,6.2-11.2,13.6-14.8,22.1c-3.6,8.5-5.5,18-5.5,28.3c0,10.7,1.9,20.4,5.7,29
		c3.8,8.6,8.9,15.9,15.2,22c6.3,6,13.5,10.7,21.4,13.9c7.9,3.3,15.9,4.9,24,4.9c8.4,0,15.7-1,21.8-3c6.1-2,12.6-5.3,19.5-9.9v31
		c-5.6,3.1-12.2,5.2-19.8,6.3c-7.7,1.1-15.7,1.7-24.1,1.7c-11.3,0-22.6-2.2-33.9-6.6c-11.3-4.4-21.4-10.7-30.3-19
		c-8.9-8.2-16.1-18.3-21.7-30.2c-5.6-11.9-8.3-25.4-8.3-40.5c0-13.6,2.4-26.2,7.3-37.9c4.9-11.7,11.7-21.8,20.4-30.4
		c8.7-8.6,19.1-15.4,31.2-20.3C379.2,30,392.4,27.5,406.8,27.5z"/>
	<path class="st1" d="M668.2,123.8c0,13.2-2.5,25.7-7.5,37.3c-5,11.7-11.8,21.9-20.5,30.6c-8.7,8.7-18.9,15.6-30.6,20.5
		c-11.7,5-24.1,7.5-37.3,7.5c-13.2,0-25.7-2.5-37.3-7.5c-11.7-5-21.8-11.8-30.4-20.5c-8.6-8.7-15.5-18.9-20.5-30.6
		c-5.1-11.7-7.6-24.1-7.6-37.3c0-13.2,2.5-25.7,7.6-37.3c5.1-11.7,11.9-21.9,20.5-30.6c8.6-8.7,18.8-15.6,30.4-20.7
		c11.7-5.1,24.1-7.6,37.3-7.6c13.2,0,25.7,2.5,37.3,7.6c11.7,5.1,21.9,12,30.6,20.7c8.7,8.7,15.6,18.9,20.5,30.6
		C665.7,98.1,668.2,110.6,668.2,123.8z M637.7,123.5c0-10.3-1.7-19.8-5.2-28.3c-3.4-8.5-8.1-15.9-14.1-22.1
		c-5.9-6.2-12.9-11.1-21-14.5c-8-3.4-16.6-5.2-25.6-5.2c-9,0-17.5,1.7-25.4,5.2c-7.9,3.4-14.9,8.3-20.8,14.5
		c-5.9,6.2-10.6,13.6-14.1,22.1c-3.4,8.5-5.2,18-5.2,28.3c0,10.7,2,20.4,5.9,29c3.9,8.6,9,16,15.4,22.1c6.3,6.1,13.5,10.9,21.5,14.2
		c8,3.4,16.2,5,24.4,5c8,0,15.9-1.7,23.7-5c7.8-3.3,14.6-8.1,20.5-14.2c5.9-6.1,10.7-13.5,14.4-22.1
		C635.9,143.9,637.7,134.2,637.7,123.5z"/>
	<path class="st1" d="M740.3,217.1h-26.7V24.4l92.5,117.8V30.4h27v192.8L740.3,104V217.1z"/>
</g>
<g>
	<path class="st2" d="M500.9,845c26.4-25.9,52.1-50.3,76.9-75.7C672.4,672.8,725,557.1,735,422.2c1.1-14.3-1.5-22.4-16.9-28.3
		c-57.8-22.2-110.1-54.5-157-94.8c-21.2-18.2-40.9-38.3-62.5-58.7c-1.8,2.4-3.8,5.3-6.1,7.9C434.1,312.7,364.2,361,283.6,393.4
		c-14.9,6-18.4,13.4-17.7,28c3.5,72.2,23.6,139.7,54.7,204.5c33,68.7,80.6,126.1,136.2,177.5C471.3,816.7,485.4,830.3,500.9,845z
		 M773.3,553.5c-15.7,32.2-29.7,66.3-48.1,97.8C676.5,734.6,607.5,799.2,530.6,856c-29.8,22-29.8,22-60.2,0
		c-1.1-0.8-2.2-1.5-3.2-2.3c-80.6-60.1-152.1-128.9-200.7-218.2c-14.9-27.4-26.2-56.8-39.2-85.3c43.3,145.3,143.5,246.3,262.5,334.2
		c-16.3,10.5-30.7,19.8-45.2,29.1c0.5,1.6,0.9,3.1,1.4,4.7c5.7-0.9,12.3-0.3,17-2.9c12.7-6.9,24.7-21.5,36.7-21.3
		c12.7,0.2,24.9,14.6,38,21.5c4.7,2.5,11.4,1.3,17.1,1.8c0.1-1.4,0.2-2.8,0.3-4.3c-14.4-9.4-28.8-18.8-44.3-28.8
		C630,796.6,729,696.2,773.3,553.5z"/>
	<path class="st1" d="M500.9,845c-15.5-14.6-29.6-28.3-44-41.6c-55.6-51.3-103.2-108.8-136.2-177.5
		c-31.1-64.8-51.2-132.3-54.7-204.5c-0.7-14.6,2.8-22,17.7-28c80.6-32.4,150.5-80.7,208.8-145.3c2.3-2.6,4.3-5.5,6.1-7.9
		c21.6,20.4,41.3,40.5,62.5,58.7c46.9,40.4,99.2,72.6,157,94.8c15.5,5.9,18,14,16.9,28.3c-10,135-62.7,250.6-157.2,347.1
		C553,794.6,527.3,819.1,500.9,845z M501,806.8c58.1-53.8,112.8-109,148.6-180.3c30.9-61.4,52.1-125.4,57.6-194.2
		c0.7-9-1.5-13.9-10.6-17.8c-71.4-30.5-134.7-73.3-189.8-128c-2-2-4.6-3.5-6.8-5.2c-1.7,1.3-2.9,2-3.8,2.9
		c-56.1,56.4-120.8,100.1-193.9,131.1c-9.5,4-9.5,10-8.7,17.6C308.7,587.1,383.9,708,501,806.8z"/>
	<path class="st1" d="M773.3,553.5C729,696.2,630,796.6,511.1,884.1c15.5,10.1,29.9,19.5,44.3,28.8c-0.1,1.4-0.2,2.8-0.3,4.3
		c-5.8-0.5-12.4,0.7-17.1-1.8c-13.1-6.9-25.3-21.3-38-21.5c-12.1-0.2-24.1,14.4-36.7,21.3c-4.8,2.6-11.3,2-17,2.9
		c-0.5-1.6-0.9-3.1-1.4-4.7c14.4-9.3,28.8-18.6,45.2-29.1c-119.1-87.9-219.2-188.9-262.5-334.2c13,28.5,24.3,57.9,39.2,85.3
		c48.6,89.4,120,158.1,200.7,218.2c1.1,0.8,2.2,1.5,3.2,2.3c30.4,22,30.4,22,60.2,0c76.9-56.8,145.9-121.3,194.6-204.6
		C743.5,619.8,757.6,585.7,773.3,553.5z"/>
	<path class="st2" d="M501,806.8C383.9,708,308.7,587.1,293.6,433c-0.7-7.7-0.7-13.6,8.7-17.6c73.1-31.1,137.9-74.7,193.9-131.1
		c0.9-0.9,2.1-1.6,3.8-2.9c2.2,1.7,4.8,3.2,6.8,5.2c55.1,54.7,118.4,97.5,189.8,128c9.1,3.9,11.3,8.9,10.6,17.8
		c-5.5,68.8-26.7,132.8-57.6,194.2C613.8,697.8,559.1,753.1,501,806.8z"/>
</g>
<g>
	<path class="st1" d="M231,964.1c0,2.3-0.4,4.2-1.4,5.7c-0.9,1.5-2.1,2.6-3.4,3.5c-1.3,0.8-2.8,1.4-4.3,1.7
		c-1.5,0.3-2.8,0.5-3.8,0.5h-8.6v-35.9h10.2c1.1,0,2.1,0.2,3.1,0.6c1,0.4,1.8,1,2.5,1.7c0.7,0.7,1.3,1.6,1.7,2.5s0.6,2,0.6,3.1
		c0,1.2-0.2,2.2-0.5,3.1s-0.7,1.6-1.2,2.2c-0.5,0.6-1,1.1-1.5,1.4c-0.5,0.3-1,0.5-1.4,0.6c1.5,0.3,2.8,0.8,3.9,1.5
		c1,0.6,1.8,1.6,2.7,2.8C230.6,960.4,231,962,231,964.1z M222.2,948.5c0-1.3-0.4-2.4-1.3-3.3s-2-1.3-3.3-1.3H215v9.2h2.7
		c1.3,0,2.4-0.5,3.3-1.4S222.2,949.8,222.2,948.5z M225.3,964.3c0-0.9-0.2-1.8-0.5-2.6c-0.4-0.8-0.8-1.6-1.4-2.2
		c-0.6-0.6-1.3-1.1-2.2-1.5c-0.8-0.4-1.7-0.5-2.6-0.5H215v13.7h3.6c0.9,0,1.8-0.2,2.6-0.6c0.8-0.4,1.5-0.9,2.2-1.5
		c0.6-0.6,1.1-1.3,1.4-2.2C225.2,966.1,225.3,965.2,225.3,964.3z"/>
	<path class="st1" d="M245.2,939.4v26.8c0,1,0.2,1.8,0.7,2.5c0.5,0.7,1,1.2,1.7,1.5c0.7,0.3,1.5,0.5,2.3,0.5c0.8,0,1.6-0.2,2.2-0.5
		c0.7-0.4,1.3-0.9,1.7-1.5c0.5-0.7,0.7-1.5,0.7-2.5v-26.8h5.4v26.7c0,2.2-0.5,4-1.5,5.4c-1,1.4-2.3,2.5-3.8,3.3
		c-1.5,0.7-3.2,1.1-5,1.1c-1.8,0-3.4-0.4-5-1.1c-1.5-0.7-2.8-1.8-3.8-3.2s-1.5-3.2-1.5-5.4v-26.8H245.2z"/>
	<path class="st1" d="M281,952.8c1.3,0.5,2.4,1.1,3.5,1.8c1.1,0.7,2,1.5,2.7,2.4c0.8,0.9,1.3,2,1.7,3.2c0.4,1.2,0.6,2.6,0.6,4.2
		c0,1.5-0.3,3-0.9,4.4c-0.6,1.4-1.5,2.6-2.5,3.7c-1.1,1.1-2.3,1.9-3.7,2.5c-1.4,0.6-2.9,0.9-4.4,0.9c-0.8,0-1.7-0.1-2.5-0.2
		c-0.8-0.1-1.6-0.3-2.4-0.5c-0.7-0.2-1.4-0.5-2-0.7c-0.6-0.3-1.1-0.5-1.4-0.7v-6.9c0.3,0.4,0.7,0.8,1.2,1.2c0.6,0.4,1.2,0.8,1.9,1.2
		c0.7,0.4,1.5,0.7,2.3,0.9c0.8,0.2,1.6,0.4,2.4,0.4c1.8,0,3.2-0.5,4.3-1.6c1.1-1.1,1.7-2.4,2-4c0.3-1.8-0.2-3.3-1.2-4.4
		c-1.1-1.1-2.6-2.1-4.5-3c-1-0.4-1.9-0.9-2.8-1.5c-0.9-0.6-1.7-1.2-2.4-2c-0.7-0.8-1.2-1.7-1.7-2.7c-0.4-1-0.6-2.2-0.6-3.6
		c0-1.6,0.3-2.9,0.9-4c0.6-1.1,1.3-2.1,2.2-2.8c0.9-0.7,1.9-1.3,3-1.6c1.1-0.4,2.1-0.6,3-0.6c0.8,0,1.6,0,2.4,0.1
		c0.8,0.1,1.4,0.2,2,0.3c0.7,0.1,1.3,0.3,1.9,0.5v6.6c-0.4-0.5-0.9-0.9-1.4-1.3c-0.5-0.3-1.1-0.6-1.8-0.9c-0.7-0.3-1.6-0.4-2.5-0.4
		c-0.7,0-1.4,0.1-1.9,0.4c-0.5,0.3-0.9,0.6-1.3,1c-0.3,0.4-0.6,0.8-0.7,1.3c-0.1,0.5-0.2,0.9-0.2,1.3c0,0.8,0.2,1.6,0.7,2.2
		c0.5,0.6,1.1,1.2,1.7,1.6C279.2,952.1,280,952.5,281,952.8z"/>
	<path class="st1" d="M299.2,939.5h5.6v36h-5.6V939.5z"/>
	<path class="st1" d="M321.6,975.5h-5.1v-37.1l17.8,22.7v-21.5h5.2v37.1l-17.9-23V975.5z"/>
	<path class="st1" d="M351.1,939.4h15.6v4.8h-10.1v14.7h10.1v4.8h-10.1v7h10.7v4.8h-16.3V939.4z"/>
	<path class="st1" d="M387.1,952.8c1.3,0.5,2.4,1.1,3.5,1.8c1.1,0.7,2,1.5,2.7,2.4c0.8,0.9,1.3,2,1.7,3.2c0.4,1.2,0.6,2.6,0.6,4.2
		c0,1.5-0.3,3-0.9,4.4c-0.6,1.4-1.5,2.6-2.5,3.7c-1.1,1.1-2.3,1.9-3.7,2.5c-1.4,0.6-2.9,0.9-4.4,0.9c-0.8,0-1.7-0.1-2.5-0.2
		c-0.8-0.1-1.6-0.3-2.4-0.5c-0.7-0.2-1.4-0.5-2-0.7c-0.6-0.3-1.1-0.5-1.4-0.7v-6.9c0.3,0.4,0.7,0.8,1.2,1.2c0.6,0.4,1.2,0.8,1.9,1.2
		c0.7,0.4,1.5,0.7,2.3,0.9c0.8,0.2,1.6,0.4,2.4,0.4c1.8,0,3.2-0.5,4.3-1.6c1.1-1.1,1.7-2.4,2-4c0.3-1.8-0.2-3.3-1.2-4.4
		c-1.1-1.1-2.6-2.1-4.5-3c-1-0.4-1.9-0.9-2.8-1.5c-0.9-0.6-1.7-1.2-2.4-2c-0.7-0.8-1.2-1.7-1.7-2.7c-0.4-1-0.6-2.2-0.6-3.6
		c0-1.6,0.3-2.9,0.9-4c0.6-1.1,1.3-2.1,2.2-2.8c0.9-0.7,1.9-1.3,3-1.6c1.1-0.4,2.1-0.6,3-0.6c0.8,0,1.6,0,2.4,0.1
		c0.8,0.1,1.4,0.2,2,0.3c0.7,0.1,1.3,0.3,1.9,0.5v6.6c-0.4-0.5-0.9-0.9-1.4-1.3c-0.5-0.3-1.1-0.6-1.8-0.9c-0.7-0.3-1.6-0.4-2.5-0.4
		c-0.7,0-1.4,0.1-1.9,0.4c-0.5,0.3-0.9,0.6-1.3,1c-0.3,0.4-0.6,0.8-0.7,1.3c-0.1,0.5-0.2,0.9-0.2,1.3c0,0.8,0.2,1.6,0.7,2.2
		c0.5,0.6,1.1,1.2,1.7,1.6C385.3,952.1,386.1,952.5,387.1,952.8z"/>
	<path class="st1" d="M414.7,952.8c1.3,0.5,2.4,1.1,3.5,1.8c1.1,0.7,2,1.5,2.7,2.4c0.8,0.9,1.3,2,1.7,3.2c0.4,1.2,0.6,2.6,0.6,4.2
		c0,1.5-0.3,3-0.9,4.4c-0.6,1.4-1.5,2.6-2.5,3.7c-1.1,1.1-2.3,1.9-3.7,2.5c-1.4,0.6-2.9,0.9-4.4,0.9c-0.8,0-1.7-0.1-2.5-0.2
		c-0.8-0.1-1.6-0.3-2.4-0.5c-0.7-0.2-1.4-0.5-2-0.7c-0.6-0.3-1.1-0.5-1.4-0.7v-6.9c0.3,0.4,0.7,0.8,1.2,1.2c0.6,0.4,1.2,0.8,1.9,1.2
		c0.7,0.4,1.5,0.7,2.3,0.9c0.8,0.2,1.6,0.4,2.4,0.4c1.8,0,3.2-0.5,4.3-1.6c1.1-1.1,1.7-2.4,2-4c0.3-1.8-0.2-3.3-1.2-4.4
		c-1.1-1.1-2.6-2.1-4.5-3c-1-0.4-1.9-0.9-2.8-1.5c-0.9-0.6-1.7-1.2-2.4-2c-0.7-0.8-1.2-1.7-1.7-2.7c-0.4-1-0.6-2.2-0.6-3.6
		c0-1.6,0.3-2.9,0.9-4c0.6-1.1,1.3-2.1,2.2-2.8c0.9-0.7,1.9-1.3,3-1.6c1.1-0.4,2.1-0.6,3-0.6c0.8,0,1.6,0,2.4,0.1
		c0.8,0.1,1.4,0.2,2,0.3c0.7,0.1,1.3,0.3,1.9,0.5v6.6c-0.4-0.5-0.9-0.9-1.4-1.3c-0.5-0.3-1.1-0.6-1.8-0.9c-0.7-0.3-1.6-0.4-2.5-0.4
		c-0.7,0-1.4,0.1-1.9,0.4c-0.5,0.3-0.9,0.6-1.3,1c-0.3,0.4-0.6,0.8-0.7,1.3c-0.1,0.5-0.2,0.9-0.2,1.3c0,0.8,0.2,1.6,0.7,2.2
		c0.5,0.6,1.1,1.2,1.7,1.6C412.9,952.1,413.8,952.5,414.7,952.8z"/>
	<path class="st1" d="M476.7,938.9c0.7,0,1.3,0.1,2,0.2c0.7,0.1,1.4,0.2,2,0.4c0.6,0.1,1.2,0.3,1.7,0.5c0.5,0.2,0.9,0.3,1.2,0.5v5.9
		c-0.4-0.4-1-0.7-1.6-1c-0.6-0.3-1.2-0.5-1.8-0.7c-0.6-0.2-1.3-0.4-1.9-0.5c-0.6-0.1-1.2-0.2-1.7-0.2c-1.7,0-3.4,0.3-5,1
		c-1.6,0.6-3,1.6-4.2,2.8c-1.2,1.2-2.1,2.6-2.8,4.3c-0.7,1.6-1.1,3.5-1.1,5.5c0,2.1,0.4,3.9,1.1,5.6c0.7,1.7,1.7,3.1,2.9,4.2
		c1.2,1.2,2.6,2.1,4.1,2.7c1.5,0.6,3.1,0.9,4.6,0.9c1.6,0,3-0.2,4.2-0.6c1.2-0.4,2.4-1,3.8-1.9v6c-1.1,0.6-2.3,1-3.8,1.2
		c-1.5,0.2-3,0.3-4.6,0.3c-2.2,0-4.4-0.4-6.5-1.3c-2.2-0.8-4.1-2.1-5.8-3.7c-1.7-1.6-3.1-3.5-4.2-5.8c-1.1-2.3-1.6-4.9-1.6-7.8
		c0-2.6,0.5-5.1,1.4-7.3c0.9-2.2,2.2-4.2,3.9-5.9c1.7-1.7,3.7-3,6-3.9C471.4,939.4,473.9,938.9,476.7,938.9z"/>
	<path class="st1" d="M527,957.5c0,2.5-0.5,4.9-1.4,7.2c-1,2.2-2.3,4.2-4,5.9c-1.7,1.7-3.6,3-5.9,4c-2.3,1-4.6,1.4-7.2,1.4
		c-2.5,0-4.9-0.5-7.2-1.4c-2.3-1-4.2-2.3-5.9-4c-1.7-1.7-3-3.6-4-5.9c-1-2.3-1.5-4.7-1.5-7.2c0-2.5,0.5-4.9,1.5-7.2
		c1-2.3,2.3-4.2,4-5.9c1.7-1.7,3.6-3,5.9-4c2.2-1,4.6-1.5,7.2-1.5c2.5,0,4.9,0.5,7.2,1.5c2.2,1,4.2,2.3,5.9,4c1.7,1.7,3,3.6,4,5.9
		C526.6,952.5,527,954.9,527,957.5z M521.2,957.4c0-2-0.3-3.8-1-5.5c-0.7-1.6-1.6-3.1-2.7-4.3c-1.1-1.2-2.5-2.1-4-2.8
		c-1.5-0.7-3.2-1-4.9-1s-3.4,0.3-4.9,1c-1.5,0.7-2.9,1.6-4,2.8c-1.1,1.2-2,2.6-2.7,4.3c-0.7,1.6-1,3.5-1,5.5c0,2.1,0.4,3.9,1.1,5.6
		c0.8,1.7,1.7,3.1,3,4.3c1.2,1.2,2.6,2.1,4.2,2.7c1.5,0.6,3.1,1,4.7,1c1.5,0,3.1-0.3,4.6-1c1.5-0.6,2.8-1.6,4-2.7
		c1.1-1.2,2.1-2.6,2.8-4.3C520.8,961.3,521.2,959.5,521.2,957.4z"/>
	<path class="st1" d="M540.9,975.5h-5.1v-37.1l17.8,22.7v-21.5h5.2v37.1l-17.9-23V975.5z"/>
	<path class="st1" d="M579.9,952.8c1.3,0.5,2.4,1.1,3.5,1.8c1.1,0.7,2,1.5,2.7,2.4c0.8,0.9,1.3,2,1.7,3.2c0.4,1.2,0.6,2.6,0.6,4.2
		c0,1.5-0.3,3-0.9,4.4c-0.6,1.4-1.5,2.6-2.5,3.7c-1.1,1.1-2.3,1.9-3.7,2.5c-1.4,0.6-2.9,0.9-4.4,0.9c-0.8,0-1.7-0.1-2.5-0.2
		c-0.8-0.1-1.6-0.3-2.4-0.5c-0.7-0.2-1.4-0.5-2-0.7c-0.6-0.3-1.1-0.5-1.4-0.7v-6.9c0.3,0.4,0.7,0.8,1.2,1.2c0.6,0.4,1.2,0.8,1.9,1.2
		c0.7,0.4,1.5,0.7,2.3,0.9c0.8,0.2,1.6,0.4,2.4,0.4c1.8,0,3.2-0.5,4.3-1.6c1.1-1.1,1.7-2.4,2-4c0.3-1.8-0.2-3.3-1.2-4.4
		c-1.1-1.1-2.6-2.1-4.5-3c-1-0.4-1.9-0.9-2.8-1.5c-0.9-0.6-1.7-1.2-2.4-2c-0.7-0.8-1.2-1.7-1.7-2.7c-0.4-1-0.6-2.2-0.6-3.6
		c0-1.6,0.3-2.9,0.9-4c0.6-1.1,1.3-2.1,2.2-2.8c0.9-0.7,1.9-1.3,3-1.6c1.1-0.4,2.1-0.6,3-0.6c0.8,0,1.6,0,2.4,0.1
		c0.8,0.1,1.4,0.2,2,0.3c0.7,0.1,1.3,0.3,1.9,0.5v6.6c-0.4-0.5-0.9-0.9-1.4-1.3c-0.5-0.3-1.1-0.6-1.8-0.9c-0.7-0.3-1.6-0.4-2.5-0.4
		c-0.7,0-1.4,0.1-1.9,0.4c-0.5,0.3-0.9,0.6-1.3,1c-0.3,0.4-0.6,0.8-0.7,1.3c-0.1,0.5-0.2,0.9-0.2,1.3c0,0.8,0.2,1.6,0.7,2.2
		c0.5,0.6,1.1,1.2,1.7,1.6C578.1,952.1,578.9,952.5,579.9,952.8z"/>
	<path class="st1" d="M603.6,939.4v26.8c0,1,0.2,1.8,0.7,2.5c0.5,0.7,1,1.2,1.7,1.5c0.7,0.3,1.5,0.5,2.3,0.5s1.6-0.2,2.2-0.5
		c0.7-0.4,1.3-0.9,1.7-1.5c0.5-0.7,0.7-1.5,0.7-2.5v-26.8h5.4v26.7c0,2.2-0.5,4-1.5,5.4s-2.3,2.5-3.8,3.3c-1.5,0.7-3.2,1.1-5,1.1
		c-1.8,0-3.4-0.4-5-1.1c-1.5-0.7-2.8-1.8-3.8-3.2s-1.5-3.2-1.5-5.4v-26.8H603.6z"/>
	<path class="st1" d="M635.6,970.6h9.7v4.8H630v-36h5.5L635.6,970.6z"/>
	<path class="st1" d="M661.2,944.2v31.3h-5.5v-31.3h-6v-4.8h17.4v4.8H661.2z"/>
	<path class="st1" d="M695.8,975.5h-6l-1.3-5.9h-8.7l-1.3,5.9h-6l9.1-36h5.3L695.8,975.5z M684,948l-3.5,16.9h7.1L684,948z"/>
	<path class="st1" d="M709.5,975.5h-5.1v-37.1l17.8,22.7v-21.5h5.2v37.1l-17.9-23V975.5z"/>
	<path class="st1" d="M755.1,938.9c0.7,0,1.3,0.1,2,0.2c0.7,0.1,1.4,0.2,2,0.4c0.6,0.1,1.2,0.3,1.7,0.5c0.5,0.2,0.9,0.3,1.2,0.5v5.9
		c-0.4-0.4-1-0.7-1.6-1c-0.6-0.3-1.2-0.5-1.8-0.7c-0.6-0.2-1.3-0.4-1.9-0.5c-0.6-0.1-1.2-0.2-1.7-0.2c-1.7,0-3.4,0.3-5,1
		c-1.6,0.6-3,1.6-4.2,2.8c-1.2,1.2-2.1,2.6-2.8,4.3c-0.7,1.6-1.1,3.5-1.1,5.5c0,2.1,0.4,3.9,1.1,5.6c0.7,1.7,1.7,3.1,2.9,4.2
		c1.2,1.2,2.6,2.1,4.1,2.7c1.5,0.6,3.1,0.9,4.6,0.9c1.6,0,3-0.2,4.2-0.6c1.2-0.4,2.4-1,3.8-1.9v6c-1.1,0.6-2.3,1-3.8,1.2
		c-1.5,0.2-3,0.3-4.6,0.3c-2.2,0-4.4-0.4-6.5-1.3c-2.2-0.8-4.1-2.1-5.8-3.7c-1.7-1.6-3.1-3.5-4.2-5.8c-1.1-2.3-1.6-4.9-1.6-7.8
		c0-2.6,0.5-5.1,1.4-7.3c0.9-2.2,2.2-4.2,3.9-5.9c1.7-1.7,3.7-3,6-3.9C749.7,939.4,752.3,938.9,755.1,938.9z"/>
	<path class="st1" d="M782.2,962.1v13.3h-5.8v-13.3l-8.2-22.7h6l5.2,16.1l5.4-16.1h5.8L782.2,962.1z"/>
</g>
</svg>
