<?xml version="1.0" encoding="utf-8"?>
<!-- Generator: Adobe Illustrator 21.0.2, SVG Export Plug-In . SVG Version: 6.00 Build 0)  -->
<svg version="1.1" id="Capa_1" xmlns="http://www.w3.org/2000/svg" xmlns:xlink="http://www.w3.org/1999/xlink" x="0px" y="0px"
	 viewBox="0 0 120 120" style="enable-background:new 0 0 120 120;" xml:space="preserve">
<style type="text/css">
	.st0{fill:#FFFFFF;}
	.st1{display:none;}
	.st2{display:inline;}
	.st3{fill:#ED7B2A;}
</style>
<g id="Capa_1_1_">
	<path class="st0" d="M103.8,84.9L68.3,26.3C64,19,56.8,19,52.5,26.3l-35,58.6c-4.3,7.3-0.9,12.8,7.7,12.8h70.5
		C104.7,97.7,108.1,91.7,103.8,84.9z M55.9,42.6c1.3-1.3,3-2.1,4.7-2.1c2.1,0,3.4,0.9,4.7,2.1c1.3,1.3,1.7,3,1.7,4.7
		s-2.6,14.1-3.4,23.1h-6.4c-0.9-9-3.4-21.4-3.4-23.1C53.8,45.6,54.7,43.9,55.9,42.6z M65.3,85.3c-1.3,1.3-3,1.7-4.7,1.7
		s-3.4-0.4-4.7-1.7c-1.3-1.3-2.1-2.6-2.1-4.7c0-1.7,0.9-3.4,2.1-4.7c1.3-1.3,3-1.7,4.7-1.7s3.4,0.4,4.7,1.7c1.3,1.3,2.1,3,2.1,4.7
		C67.5,82.8,66.6,84,65.3,85.3z"/>
</g>
<g id="Capa_2" class="st1">
	<g id="XMLID_42_" class="st2">
		<g id="XMLID_60_">
			<path id="XMLID_28_" class="st3" d="M60,37.4c2.6,0,4.7-2.1,4.7-4.7S62.6,28,60,28c-2.6,0-4.7,2.1-4.7,4.7
				C55.3,35.3,57.4,37.4,60,37.4z"/>
			<path id="XMLID_27_" class="st3" d="M66.4,39.4h-2.1l-3.2,5l-1,1.6l-1-1.6l-3.3-5h-2.1c-2.5,0-5,1.8-5,4.2v17.7
				c0,1.1,0.9,2.1,2.1,2.1c1.1,0,2.1-0.9,2.1-2.1l0,0l0,0V46.5l0,0c0-0.2,0.2-0.4,0.4-0.4s0.4,0.2,0.4,0.4l0,0l0,0V87l0,0
				c0,1.6,1.3,3,3,3c1.6,0,3-1.3,3-3V63.7l0,0l0,0c0-0.2,0.2-0.4,0.5-0.4c0.2,0,0.4,0.2,0.4,0.4l0,0l0,0V87l0,0c0,1.6,1.3,3,3,3
				c1.6,0,3-1.3,3-3l0,0V46.5l0,0c0-0.2,0.2-0.4,0.4-0.4c0.2,0,0.4,0.2,0.4,0.4l0,0v14.7l0,0c0,1.1,0.9,2.1,2.1,2.1
				c1.1,0,2.1-0.9,2.1-2.1l0,0V43.9C71.4,41.3,69,39.4,66.4,39.4z"/>
			<path id="XMLID_26_" class="st3" d="M61.2,40.5c0.3-0.3,0.3-0.7,0-1l-0.1-0.1H59l-0.1,0.1c-0.3,0.3-0.3,0.7,0,1l0.5,0.5L59,44.4
				l1,1.6l1-1.6L60.6,41L61.2,40.5z"/>
		</g>
		<g id="XMLID_56_">
			<path id="XMLID_25_" class="st3" d="M37.2,40.7c2.2,0,4-1.8,4-4s-1.8-4-4-4s-4,1.8-4,4S35,40.7,37.2,40.7z"/>
			<path id="XMLID_24_" class="st3" d="M42.6,42.4h-1.8l-2.7,4.2L37.2,48l-0.9-1.3l-2.8-4.2h-1.8c-2.1,0-4.2,1.5-4.2,3.6v15
				c0,1,0.8,1.7,1.7,1.7c1,0,1.7-0.8,1.7-1.7l0,0l0,0V48.4l0,0c0-0.2,0.2-0.4,0.4-0.4c0.2,0,0.4,0.2,0.4,0.4l0,0l0,0v34.2l0,0
				c0,1.4,1.1,2.5,2.5,2.5s2.5-1.1,2.5-2.5V62.9l0,0l0,0c0-0.2,0.2-0.4,0.4-0.4s0.4,0.2,0.4,0.4l0,0l0,0v19.7l0,0
				c0,1.4,1.1,2.5,2.5,2.5s2.5-1.1,2.5-2.5l0,0V48.4l0,0c0-0.2,0.2-0.4,0.4-0.4s0.4,0.2,0.4,0.4l0,0v12.4l0,0c0,1,0.8,1.7,1.7,1.7
				c1,0,1.7-0.8,1.7-1.7l0,0V46.2C46.9,44.1,44.8,42.4,42.6,42.4z"/>
			<path id="XMLID_23_" class="st3" d="M38.2,43.3c0.2-0.2,0.2-0.6,0-0.8l-0.1-0.1h-1.7l-0.1,0.1c-0.2,0.2-0.2,0.6,0,0.8l0.4,0.4
				l-0.3,2.9l0.9,1.3l0.9-1.4l-0.3-2.9L38.2,43.3z"/>
		</g>
		<g id="XMLID_52_">
			<path id="XMLID_22_" class="st3" d="M17.9,44c1.8,0,3.3-1.5,3.3-3.3s-1.5-3.3-3.3-3.3s-3.3,1.5-3.3,3.3
				C14.6,42.6,16.1,44,17.9,44z"/>
			<path id="XMLID_21_" class="st3" d="M22.3,45.4h-1.5l-2.2,3.4L17.9,50l-0.7-1.1l-2.3-3.5h-1.4c-1.7,0-3.5,1.3-3.5,2.9v12.2
				c0,0.8,0.6,1.4,1.4,1.4c0.8,0,1.4-0.6,1.4-1.4l0,0l0,0V50.4l0,0c0-0.2,0.1-0.3,0.3-0.3s0.3,0.1,0.3,0.3l0,0l0,0v28l0,0
				c0,1.1,0.9,2.1,2,2.1s2.1-0.9,2.1-2.1V62.2l0,0l0,0c0-0.2,0.1-0.3,0.3-0.3c0.2,0,0.3,0.1,0.3,0.3l0,0l0,0v16.2l0,0
				c0,1.1,0.9,2,2.1,2c1.1,0,2.1-0.9,2.1-2l0,0v-28l0,0c0-0.2,0.1-0.3,0.3-0.3c0.2,0,0.3,0.1,0.3,0.3l0,0v10.2l0,0
				c0,0.8,0.6,1.4,1.4,1.4s1.4-0.6,1.4-1.4l0,0v-12C25.8,46.8,24.1,45.4,22.3,45.4z"/>
			<path id="XMLID_20_" class="st3" d="M18.7,46.2c0.2-0.2,0.2-0.5,0-0.7l-0.1-0.1h-1.4l-0.1,0.1c-0.2,0.2-0.2,0.5,0,0.7l0.3,0.3
				l-0.3,2.4l0.7,1.1l0.7-1.1l-0.3-2.3L18.7,46.2z"/>
		</g>
		<g id="XMLID_47_">
			<path id="XMLID_19_" class="st3" d="M82.8,40.7c2.2,0,4-1.8,4-4s-1.8-4-4-4s-4,1.8-4,4S80.6,40.7,82.8,40.7z"/>
			<path id="XMLID_18_" class="st3" d="M88.2,42.4h-1.8l-2.7,4.2L82.8,48L82,46.6l-2.8-4.2h-1.8c-2.1,0-4.2,1.5-4.2,3.6v15
				c0,1,0.8,1.7,1.7,1.7c1,0,1.7-0.8,1.7-1.7l0,0l0,0V48.4l0,0c0-0.2,0.2-0.4,0.4-0.4c0.2,0,0.4,0.2,0.4,0.4l0,0l0,0v34.2l0,0
				c0,1.4,1.1,2.5,2.5,2.5s2.5-1.1,2.5-2.5V62.9l0,0l0,0c0-0.2,0.2-0.4,0.4-0.4s0.4,0.2,0.4,0.4l0,0l0,0v19.7l0,0
				c0,1.4,1.1,2.5,2.5,2.5s2.5-1.1,2.5-2.5l0,0V48.4l0,0c0-0.2,0.2-0.4,0.4-0.4c0.2,0,0.4,0.2,0.4,0.4l0,0v12.4l0,0
				c0,1,0.8,1.7,1.7,1.7c1,0,1.7-0.8,1.7-1.7l0,0V46.2C92.5,44.1,90.4,42.4,88.2,42.4z"/>
			<path id="XMLID_17_" class="st3" d="M83.8,43.3c0.2-0.2,0.2-0.6,0-0.8l-0.1-0.1H82l-0.1,0.1c-0.2,0.2-0.2,0.6,0,0.8l0.4,0.4
				L82,46.6l0.9,1.3l0.9-1.4l-0.3-2.9L83.8,43.3z"/>
		</g>
		<g id="XMLID_43_">
			<path id="XMLID_16_" class="st3" d="M102.1,44c1.8,0,3.3-1.5,3.3-3.3s-1.5-3.3-3.3-3.3s-3.3,1.5-3.3,3.3
				C98.8,42.6,100.3,44,102.1,44z"/>
			<path id="XMLID_15_" class="st3" d="M106.5,45.4H105l-2.2,3.4l-0.7,1.1l-0.7-1.1l-2.3-3.5h-1.4c-1.7,0-3.5,1.3-3.5,2.9v12.2
				c0,0.8,0.6,1.4,1.4,1.4s1.4-0.6,1.4-1.4l0,0l0,0v-10l0,0c0-0.2,0.1-0.3,0.3-0.3c0.2,0,0.3,0.1,0.3,0.3l0,0l0,0v28l0,0
				c0,1.1,0.9,2.1,2.1,2.1c1.1,0,2.1-0.9,2.1-2.1V62.2l0,0l0,0c0-0.2,0.1-0.3,0.3-0.3c0.2,0,0.3,0.1,0.3,0.3l0,0l0,0v16.2l0,0
				c0,1.1,0.9,2,2.1,2c1.1,0,2.1-0.9,2.1-2l0,0v-28l0,0c0-0.2,0.1-0.3,0.3-0.3s0.3,0.1,0.3,0.3l0,0v10.2l0,0c0,0.8,0.6,1.4,1.4,1.4
				s1.4-0.6,1.4-1.4l0,0v-12C110,46.8,108.3,45.4,106.5,45.4z"/>
			<path id="XMLID_14_" class="st3" d="M102.9,46.2c0.2-0.2,0.2-0.5,0-0.7l-0.1-0.1h-1.4l-0.1,0.1c-0.2,0.2-0.2,0.5,0,0.7l0.3,0.3
				l-0.3,2.4L102,50l0.7-1.1l-0.3-2.3L102.9,46.2z"/>
		</g>
	</g>
</g>
</svg>
