<?xml version="1.0" encoding="utf-8"?>
<!-- Generator: Adobe Illustrator 21.0.2, SVG Export Plug-In . SVG Version: 6.00 Build 0)  -->
<svg version="1.1" id="Capa_1" xmlns="http://www.w3.org/2000/svg" xmlns:xlink="http://www.w3.org/1999/xlink" x="0px" y="0px"
	 viewBox="0 0 584.4 584.4" style="enable-background:new 0 0 584.4 584.4;" xml:space="preserve">
<style type="text/css">
	.st0{fill:#FFFFFF;}
</style>
<g>
	<g>
		<path class="st0" d="M213.8,358.9c38.7,0,75.1-15.1,102.5-42.5c5.2-5.2,9.9-10.6,14.2-16.4l-4.2-22.6c0-8.9-7.2-16.1-16.1-16.1
			l-39.2-8c-7.7-9.6-14.5-20.4-19.2-28.1c13.3-8.8,23.9-21.9,29.7-37.7c9.8-0.6,17.6-8.7,17.6-18.7c0-8.3-5.3-15.2-12.8-17.7
			c-3.6-39.5-34.7-70.4-72.6-70.4s-69,30.9-72.6,70.4c-7.4,2.5-12.8,9.5-12.8,17.7c0,10,7.8,18.1,17.6,18.7
			c5.9,15.7,16.4,28.9,29.7,37.7c-4.6,7.8-11.5,18.5-19.1,28l-39.3,8.1c-8.9,0-16.1,7.2-16.1,16.1L97,300
			C123.6,335.6,166,358.9,213.8,358.9z"/>
		<path class="st0" d="M407.4,350.7c-15.5,22-34.6,41.1-56.6,56.6c-4.1,2.9-6.8,7.3-7.5,12.1c-0.6,4.8,0.8,9.6,4,13.4l115.9,136.6
			c7.9,9.4,19.3,14.9,31.2,14.9c10.8,0,21-4.3,28.9-12.2l49-49c8.3-8.3,12.7-19.2,12.1-30.7c-0.5-11.4-5.8-21.9-14.9-29.5L433,347.3
			c-3.2-2.7-7.2-4.2-11.3-4.2C416.1,343.1,410.7,346,407.4,350.7z"/>
		<path class="st0" d="M213.8,427.6c118.1,0,213.8-95.7,213.8-213.8S331.9,0,213.8,0S0,95.7,0,213.8S95.7,427.6,213.8,427.6z
			 M213.8,53.5c88.4,0,160.4,71.9,160.4,160.4c0,40.5-15.2,77.6-40.1,105.9c-14.8,16.8-33.1,30.5-53.6,39.9
			c-20.3,9.3-42.9,14.6-66.7,14.6s-46.3-5.2-66.7-14.6c-20.6-9.4-38.8-23.1-53.6-39.9c-24.9-28.3-40.1-65.3-40.1-105.9
			C53.4,125.4,125.4,53.5,213.8,53.5z"/>
	</g>
</g>
</svg>
