<!-- Generator: Adobe Illustrator 21.0.2, SVG Export Plug-In  -->
<svg version="1.1"
	 xmlns="http://www.w3.org/2000/svg" xmlns:xlink="http://www.w3.org/1999/xlink" xmlns:a="http://ns.adobe.com/AdobeSVGViewerExtensions/3.0/"
	 x="0px" y="0px" width="176.441px" height="176.441px" viewBox="0 0 176.441 176.441"
	 style="enable-background:new 0 0 176.441 176.441;" xml:space="preserve">
<style type="text/css">
	.st0{fill:#FFFFFF;}
	.st1{fill:#323232;}
</style>
<defs>
</defs>
<circle class="st0" cx="88.22" cy="88.22" r="88.22"/>
<g>
	<path class="st1" d="M100.259,81.754c-0.103-0.857-0.429-1.639-0.93-2.291l3.437-21.331c0.128-0.794-0.381-1.55-1.164-1.731
		l-0.038-0.009c-0.783-0.181-1.572,0.276-1.805,1.046l-6.261,20.679c-1.543,0.776-2.614,2.358-2.614,4.2
		c0,2.601,2.115,4.717,4.716,4.717c0.485,0,0.943-0.095,1.383-0.231l13.081,6.798c0.72,0.374,1.606,0.14,2.047-0.54l0.02-0.03
		c0.442-0.68,0.295-1.584-0.34-2.09L100.259,81.754z M93.269,82.316c0-1.284,1.045-2.329,2.329-2.329
		c1.285,0,2.331,1.045,2.331,2.329c0,1.285-1.045,2.331-2.331,2.331C94.314,84.646,93.269,83.601,93.269,82.316z M131.107,82.316
		c0,15.789-10.362,29.199-24.64,33.801l-0.001-5.056c11.599-4.4,19.868-15.622,19.868-28.744c0-16.947-13.788-30.735-30.735-30.735
		c-16.947,0-30.735,13.788-30.735,30.735c0,1.7,0.145,3.366,0.412,4.992h-4.827c-0.231-1.632-0.358-3.297-0.358-4.992
		c0-19.58,15.929-35.509,35.509-35.509S131.107,62.736,131.107,82.316z M101.789,107.617L90.858,96.806
		c-0.692-0.692-1.635-1.074-2.601-1.074h-5.513v-2.064c0-1.539-1.253-2.78-2.792-2.78H48.114c-1.539,0-2.78,1.241-2.78,2.78v18.615
		h57.553v-2.028C102.886,109.264,102.493,108.309,101.789,107.617z M97.027,107.975H86.443c-0.239,0-0.43-0.191-0.43-0.43v-8.174
		c0-0.239,0.191-0.43,0.43-0.43h2.017c0.107,0,0.227,0.048,0.31,0.119l8.556,8.174C97.612,107.498,97.421,107.975,97.027,107.975z
		 M102.888,113.821v6.158c0,1.536-1.245,2.782-2.782,2.782H97.13c-0.538-3.691-3.718-6.528-7.557-6.528
		c-3.83,0-7.01,2.837-7.548,6.528H66.938c-0.538-3.691-3.718-6.528-7.548-6.528s-7.01,2.837-7.548,6.528h-3.727
		c-1.536,0-2.782-1.246-2.782-2.782v-6.159H102.888z M89.581,118.094c-3.186,0-5.775,2.578-5.775,5.764
		c0,3.186,2.589,5.776,5.775,5.776c3.186,0,5.764-2.59,5.764-5.776C95.345,120.672,92.767,118.094,89.581,118.094z M89.581,126.746
		c-1.599,0-2.888-1.289-2.888-2.888c0-1.587,1.289-2.888,2.888-2.888c1.587,0,2.876,1.3,2.876,2.888
		C92.457,125.457,91.168,126.746,89.581,126.746z M59.391,118.094c-3.186,0-5.776,2.578-5.776,5.764c0,3.186,2.59,5.776,5.776,5.776
		c3.186,0,5.764-2.59,5.764-5.776C65.155,120.672,62.577,118.094,59.391,118.094z M59.391,126.746c-1.599,0-2.888-1.289-2.888-2.888
		c0-1.587,1.289-2.888,2.888-2.888c1.587,0,2.888,1.3,2.888,2.888C62.279,125.457,60.978,126.746,59.391,126.746z"/>
</g>
</svg>