<!-- Generator: Adobe Illustrator 21.0.2, SVG Export Plug-In  -->
<svg version="1.1"
	 xmlns="http://www.w3.org/2000/svg" xmlns:xlink="http://www.w3.org/1999/xlink" xmlns:a="http://ns.adobe.com/AdobeSVGViewerExtensions/3.0/"
	 x="0px" y="0px" width="252.659px" height="361.312px" viewBox="0 0 252.659 361.312"
	 style="enable-background:new 0 0 252.659 361.312;" xml:space="preserve">
<style type="text/css">
	.st0{fill:#FFFFFF;}
	.st1{fill:none;}
</style>
<defs>
</defs>
<path d="M122.517,140.737l-1,8.75l-0.417,20.083l-0.833,7.833c0,0-1.083,5.917-0.917,6.667s0.399,0.75,1.575,0.75
	s11.009-0.5,12.092-0.667c1.083-0.167,0.75-2.167,0.75-2.167s-1.167-9.25-1.167-10s-0.25-13.583-0.083-15.583
	c0.167-2,1.347-12.833,1.298-13.333s-0.381-2.091-0.381-2.091l-0.455-0.736c0,0,0.204,0.744-0.879,1.327
	c-1.083,0.583-3.167,1.333-3.25,1.667c-0.083,0.333-1.417,0.833-1.417,0.833s-1.167-0.833-1.583-1.417s-2.25-2.41-2.25-2.41
	L122.517,140.737z"/>
<g>
	<title>Layer 1</title>
	<g id="layer1_1_">
		<path id="path2453_1_" class="st0" d="M127.545,270.721c-1.06-0.226-1.526-0.618-1.526-1.283c0-0.359-0.215-0.639-0.673-0.876
			c-0.557-0.288-0.673-0.486-0.673-1.147c0-0.631-0.165-0.945-0.785-1.494c-0.932-0.825-0.977-1.303-0.312-3.273
			c0.428-1.267,0.44-1.438,0.127-1.783c-0.298-0.329-0.321-0.867-0.164-3.859l0.182-3.476l1.272-3.141l1.272-3.141l0.072-4.824
			c0.045-3.025,0.197-5.493,0.407-6.618c0.445-2.382,0.316-13.069-0.178-14.843c-0.584-2.095-1.234-6.426-1.359-9.051
			c-0.067-1.419-0.171-2.731-0.231-2.917c-0.19-0.589-2.044,3.114-2.978,5.945c-1.247,3.779-1.735,5.522-2.251,8.031
			c-0.247,1.2-0.602,2.478-0.79,2.841c-0.188,0.363-0.345,1.043-0.349,1.512c-0.004,0.469-0.152,1.509-0.329,2.311
			c-0.439,1.995-0.414,3.423,0.132,7.68c0.257,2.007,0.562,5.517,0.678,7.8c0.115,2.283,0.334,5.665,0.486,7.516
			c0.252,3.082,0.332,3.46,0.945,4.484c1.163,1.944,1.449,3.11,1.43,5.836c-0.009,1.357-0.082,3.074-0.161,3.814l-0.144,1.346
			l-1.795,0.302c-1.364,0.23-2.113,0.245-3.12,0.063c-1.309-0.236-1.338-0.23-2.356,0.511c-0.567,0.412-1.257,0.82-1.534,0.905
			c-0.965,0.297-5.748,0.164-7.573-0.211c-2.269-0.467-2.539-0.697-1.949-1.667c0.59-0.97,1.003-1.227,2.849-1.777
			c1.849-0.551,3.435-1.499,4.124-2.466c0.456-0.64,0.467-0.732,0.146-1.221c-0.796-1.214-1.37-7.836-1.591-18.331l-0.139-6.618
			l-1.009-4.599c-0.555-2.53-1.153-5.154-1.329-5.833c-0.279-1.072-0.278-1.543,0.004-3.59c0.447-3.236,1.014-8.568,1.242-11.661
			l0.189-2.575l-1.303-1.729c-1.297-1.721-1.304-1.738-1.467-3.704c-0.137-1.649-0.087-2.272,0.306-3.772
			c0.519-1.983,0.424-3.074-0.357-4.133c-1.083-1.469-0.643-17.439,0.66-23.913c0.346-1.723,0.418-2.686,0.309-4.151
			c-0.078-1.049-0.036-2.614,0.094-3.477c0.305-2.026,1.286-9.514,1.583-12.093c0.156-1.347,0.411-2.333,0.784-3.029
			c0.304-0.568,0.7-1.411,0.88-1.873c0.211-0.542,0.472-0.841,0.734-0.841c0.224,0,1.466-0.46,2.76-1.022
			c1.294-0.562,3.233-1.269,4.308-1.572c3.178-0.894,4.072-1.391,5.132-2.854c0.855-1.18,0.849-1.951-0.02-2.594
			c-0.408-0.302-0.673-0.701-0.673-1.013c0-0.283-0.249-0.749-0.554-1.036c-0.776-0.729-1.097-1.861-0.93-3.283
			c0.118-1.007,0.015-1.573-0.654-3.571c-0.883-2.64-0.88-3.26,0.025-5.068c0.715-1.428,2.607-3.438,3.762-3.997
			c0.727-0.352,1.398-0.465,2.756-0.465c4.247,0,7.173,1.963,8.615,5.78c0.399,1.056,0.459,1.549,0.338,2.746
			c-0.173,1.702-0.173,1.719,0.003,3.477c0.126,1.264,0.084,1.428-0.68,2.684c-0.53,0.87-0.772,1.505-0.694,1.816
			c0.082,0.325-0.058,0.646-0.436,1.001c-0.687,0.645-0.723,1.58-0.101,2.586l0.455,0.736l-0.455-0.119
			c-0.365-0.095-0.455-0.011-0.455,0.424c0,0.417-0.29,0.723-1.25,1.316c-0.687,0.425-1.718,1.062-2.29,1.415
			c-0.985,0.608-1.017,0.658-0.601,0.946c1.069,0.74,1.07,0.754,0.114,1.792c-1.07,1.16-1.12,1.618-0.437,3.971
			c0.405,1.396,0.485,2.395,0.57,7.12c0.055,3.023,0.019,8.572-0.078,12.33l-0.178,6.834l-1.891,1.458l-1.891,1.458l-1.643-1.782
			c-1.475-1.599-1.643-1.874-1.643-2.686c0-1.17,0.807-11.175,1.239-15.357c0.411-3.979,1.755-10.169,2.407-11.085
			c0.65-0.913,0.598-1.814-0.152-2.596l-0.619-0.646l0.858-0.583c0.472-0.321,0.98-0.583,1.129-0.583
			c0.677,0,0.71-0.455-1.048-2.204l-2.23-1.922l-0.344,0.822c-0.208,0.498-0.35,1.555-0.36,2.68
			c-0.009,1.022-0.112,2.413-0.229,3.092c-0.117,0.679-0.305,6.282-0.418,12.452c-0.22,12.046-0.402,14.957-1.256,20.184
			c-0.742,4.538-0.765,4.323,0.481,4.51c2.579,0.387,11.904-0.423,12.573-1.092c0.074-0.074-0.243-1.831-0.705-3.904
			c-1.246-5.59-1.367-7.394-1.052-15.719c0.245-6.495,1.055-16.076,1.615-19.107c0.124-0.67,0.225-1.653,0.225-2.182l0.013-1.236
			l0.889,1.251c0.548,0.594,1.494,1.254,2.412,1.681c0.83,0.387,3.194,1.534,5.251,2.55c3.584,1.769,3.752,1.882,3.988,2.679
			c0.136,0.458,0.342,0.891,0.458,0.963c0.204,0.126,0.838,2.069,1.485,4.555c0.182,0.696,0.314,2.37,0.32,4.038
			c0.005,1.567,0.113,3.607,0.238,4.532c0.126,0.925,0.322,3.096,0.437,4.824c0.115,1.728,0.309,4.251,0.432,5.609
			c0.472,5.232,0.486,6.764,0.103,11.33c-0.212,2.53-0.426,6.114-0.476,7.965c-0.081,3.018-0.147,3.48-0.641,4.475
			c-0.303,0.61-0.551,1.294-0.551,1.519c0,0.225-0.24,0.519-0.532,0.652c-0.426,0.194-0.56,0.472-0.671,1.397
			c-0.076,0.635-0.14,1.511-0.141,1.946c-0.003,1.082-1.412,3.974-2.069,4.247c-0.282,0.117-1.314,0.371-2.293,0.563
			c-0.979,0.193-1.806,0.376-1.837,0.408c-0.032,0.032-0.225,1.065-0.43,2.296c-0.387,2.327-1.312,5.936-1.713,6.686
			c-0.127,0.238-0.429,2.111-0.67,4.162c-0.381,3.242-0.436,5.149-0.419,14.585c0.027,14.898-0.375,22.057-1.374,24.48
			c-0.673,1.633-1.932,3.781-2.616,4.465c-0.356,0.356-0.48,0.643-0.352,0.814c0.109,0.145,0.491,0.708,0.849,1.25
			c0.358,0.543,0.844,1.269,1.08,1.614c0.985,1.441-0.167,2.137-3.775,2.282C129.474,270.854,128.001,270.819,127.545,270.721z
			 M108.923,204.465c0.335-0.335,0.37-3.545,0.039-3.545c-0.38,0-0.667,1.069-0.667,2.482
			C108.295,204.742,108.425,204.963,108.923,204.465z M141.381,202.502c0.484-0.935,0.425-1.59-0.212-2.367l-0.552-0.673
			l-0.008,1.851C140.601,203.277,140.812,203.602,141.381,202.502z M142.397,182.636c-0.329-5.409-0.603-8.34-0.881-9.423
			c-0.127-0.494-0.235-1.402-0.239-2.019c-0.009-1.091-0.29-1.918-0.56-1.648c-0.073,0.073-0.155,1.534-0.181,3.247
			c-0.039,2.579,0.056,3.652,0.554,6.254c0.33,1.728,0.709,3.494,0.841,3.925c0.132,0.431,0.241,2.411,0.241,4.4
			s0.076,4.11,0.168,4.713C142.629,193.964,142.669,187.129,142.397,182.636z"/>
	</g>
</g>
<g>
	<path class="st0" d="M42.292,50.794c0.071,4.578-0.817,8.321-2.671,11.227c-1.853,2.907-4.105,5.178-6.758,6.812
		c-2.653,1.635-5.45,2.763-8.393,3.379c-2.943,0.618-5.434,0.927-7.467,0.927H0V2.397h20.165c2.106,0,4.123,0.419,6.05,1.254
		c1.924,0.836,3.597,1.962,5.014,3.379s2.543,3.09,3.379,5.014c0.835,1.927,1.254,3.943,1.254,6.05c0,2.326-0.327,4.36-0.981,6.104
		c-0.654,1.744-1.436,3.216-2.344,4.415c-0.909,1.199-1.89,2.125-2.942,2.779c-1.055,0.654-1.98,1.019-2.779,1.09
		c2.905,0.583,5.485,1.6,7.738,3.052c1.889,1.237,3.633,3.071,5.232,5.505C41.383,43.474,42.219,46.725,42.292,50.794z
		 M24.961,20.056c0-2.543-0.872-4.687-2.616-6.431s-3.888-2.616-6.431-2.616h-5.232v18.203h5.232c2.543,0,4.687-0.89,6.431-2.671
		C24.089,24.762,24.961,22.601,24.961,20.056z M31.065,51.121c0-1.816-0.346-3.543-1.036-5.178
		c-0.691-1.635-1.635-3.069-2.834-4.306c-1.199-1.234-2.616-2.197-4.251-2.889c-1.635-0.689-3.361-1.035-5.178-1.035h-7.085v26.923
		h7.085c1.816,0,3.543-0.363,5.178-1.09c1.635-0.726,3.052-1.689,4.251-2.889s2.143-2.616,2.834-4.251
		C30.72,54.772,31.065,53.011,31.065,51.121z"/>
	<path class="st0" d="M90.905,1.198c1.308,0,2.651,0.109,4.032,0.327c1.38,0.219,2.688,0.474,3.925,0.764
		c1.234,0.291,2.36,0.599,3.379,0.926c1.017,0.327,1.779,0.638,2.289,0.927v11.663c-0.872-0.726-1.891-1.362-3.053-1.907
		c-1.163-0.545-2.361-1.017-3.597-1.417c-1.236-0.398-2.471-0.709-3.706-0.927c-1.236-0.218-2.362-0.327-3.379-0.327
		c-3.416,0-6.687,0.637-9.81,1.907c-3.126,1.272-5.869,3.09-8.229,5.45c-2.362,2.362-4.234,5.161-5.614,8.394
		c-1.381,3.233-2.07,6.812-2.07,10.736c0,4.07,0.726,7.739,2.18,11.009c1.453,3.27,3.379,6.05,5.777,8.339
		c2.397,2.289,5.104,4.052,8.12,5.286c3.015,1.236,6.05,1.853,9.102,1.853c3.196,0,5.958-0.381,8.284-1.144
		c2.324-0.764,4.796-2.017,7.412-3.761v11.771c-2.108,1.163-4.616,1.962-7.521,2.398c-2.907,0.436-5.959,0.654-9.156,0.654
		c-4.288,0-8.575-0.837-12.861-2.508c-4.289-1.67-8.121-4.068-11.5-7.193c-3.379-3.124-6.122-6.938-8.229-11.445
		c-2.108-4.505-3.161-9.628-3.161-15.369c0-5.158,0.927-9.954,2.78-14.388c1.853-4.432,4.432-8.284,7.738-11.554
		c3.306-3.271,7.249-5.832,11.827-7.685C80.441,2.125,85.455,1.198,90.905,1.198z"/>
	<path class="st0" d="M190.094,37.714c0,5.014-0.945,9.738-2.834,14.17c-1.891,4.434-4.488,8.303-7.794,11.608
		c-3.308,3.308-7.177,5.904-11.608,7.794c-4.434,1.889-9.156,2.834-14.17,2.834s-9.738-0.945-14.17-2.834
		c-4.434-1.89-8.284-4.486-11.554-7.794c-3.271-3.306-5.869-7.175-7.794-11.608c-1.926-4.432-2.889-9.156-2.889-14.17
		c0-5.015,0.963-9.737,2.889-14.17c1.925-4.432,4.523-8.302,7.794-11.608c3.27-3.306,7.12-5.922,11.554-7.849
		c4.432-1.924,9.156-2.889,14.17-2.889s9.736,0.965,14.17,2.889c4.432,1.927,8.301,4.543,11.608,7.849
		c3.306,3.307,5.903,7.177,7.794,11.608C189.148,27.977,190.094,32.699,190.094,37.714z M178.539,37.604
		c0-3.924-0.653-7.502-1.962-10.736c-1.308-3.232-3.089-6.03-5.341-8.393c-2.253-2.361-4.905-4.197-7.957-5.505
		s-6.286-1.962-9.701-1.962c-3.416,0-6.632,0.654-9.646,1.962c-3.016,1.308-5.65,3.144-7.902,5.505
		c-2.253,2.362-4.033,5.16-5.341,8.393c-1.308,3.234-1.962,6.812-1.962,10.736c0,4.07,0.744,7.739,2.234,11.009
		c1.488,3.271,3.434,6.068,5.832,8.394c2.397,2.326,5.122,4.125,8.175,5.396c3.052,1.272,6.14,1.907,9.265,1.907
		c3.052,0,6.05-0.635,8.992-1.907c2.943-1.271,5.541-3.069,7.794-5.396c2.252-2.325,4.068-5.123,5.45-8.394
		C177.848,45.344,178.539,41.675,178.539,37.604z"/>
	<path class="st0" d="M217.452,73.139h-10.137V0l35.098,44.689v-42.4h10.246v73.139l-35.207-45.235V73.139z"/>
</g>
<g>
	<path class="st1" d="M126.612,311.357c10.003-9.821,19.769-19.094,29.186-28.709c35.878-36.635,55.846-80.503,59.657-131.718
		c0.405-5.445-0.561-8.499-6.424-10.751c-21.931-8.422-41.757-20.664-59.565-35.981c-8.05-6.925-15.51-14.535-23.719-22.289
		c-0.695,0.902-1.438,2.011-2.323,2.991c-22.145,24.512-48.68,42.838-79.244,55.134c-5.652,2.274-6.987,5.089-6.717,10.621
		c1.341,27.387,8.961,53.015,20.767,77.586c12.529,26.076,30.586,47.861,51.685,67.343
		C115.387,300.636,120.747,305.809,126.612,311.357z M229.96,200.767c-5.956,12.227-11.282,25.155-18.267,37.114
		c-18.46,31.604-44.644,56.109-73.826,77.645c-11.304,8.342-11.31,8.334-22.832-0.011c-0.404-0.293-0.822-0.568-1.223-0.866
		c-30.599-22.804-57.712-48.892-76.134-82.802c-5.657-10.412-9.952-21.564-14.871-32.377c16.426,55.127,54.43,93.457,99.606,126.82
		c-6.194,3.992-11.665,7.518-17.137,11.045c0.18,0.593,0.36,1.187,0.539,1.78c2.174-0.326,4.653-0.096,6.465-1.086
		c4.805-2.626,9.359-8.148,13.943-8.075c4.832,0.077,9.462,5.524,14.433,8.144c1.789,0.942,4.315,0.485,6.504,0.666
		c0.044-0.539,0.088-1.078,0.132-1.617c-5.467-3.563-10.934-7.125-16.797-10.946C175.611,293.012,213.168,254.91,229.96,200.767z"/>
	<path class="st0" d="M126.612,311.357c-5.866-5.548-11.225-10.721-16.696-15.773c-21.099-19.482-39.156-41.267-51.685-67.343
		c-11.806-24.571-19.426-50.199-20.767-77.586c-0.271-5.531,1.064-8.347,6.717-10.621c30.564-12.296,57.099-30.622,79.244-55.134
		c0.886-0.98,1.628-2.09,2.323-2.991c8.209,7.754,15.669,15.365,23.719,22.289c17.807,15.317,37.633,27.559,59.565,35.981
		c5.863,2.252,6.83,5.306,6.424,10.751c-3.812,51.215-23.779,95.082-59.657,131.718
		C146.381,292.263,136.615,301.536,126.612,311.357z M126.668,296.888c22.046-20.396,42.787-41.371,56.384-68.411
		c11.719-23.306,19.766-47.57,21.85-73.684c0.271-3.4-0.562-5.283-4.024-6.764c-27.087-11.583-51.091-27.817-72.014-48.582
		c-0.771-0.765-1.735-1.334-2.573-1.967c-0.664,0.504-1.1,0.761-1.445,1.109c-21.268,21.407-45.838,37.974-73.584,49.756
		c-3.593,1.526-3.594,3.78-3.31,6.684C53.677,213.52,82.236,259.38,126.668,296.888z"/>
	<path class="st0" d="M229.96,200.767c-16.792,54.143-54.349,92.245-99.462,125.435c5.862,3.82,11.329,7.383,16.797,10.946
		c-0.044,0.539-0.088,1.078-0.132,1.617c-2.19-0.181-4.716,0.276-6.504-0.666c-4.972-2.62-9.601-8.067-14.433-8.144
		c-4.583-0.073-9.138,5.449-13.943,8.075c-1.811,0.99-4.29,0.76-6.465,1.086c-0.18-0.593-0.36-1.187-0.539-1.78
		c5.471-3.526,10.943-7.053,17.137-11.045c-45.176-33.363-83.18-71.693-99.606-126.82c4.919,10.813,9.214,21.965,14.871,32.377
		c18.422,33.909,45.535,59.998,76.134,82.802c0.4,0.298,0.818,0.573,1.223,0.866c11.522,8.345,11.528,8.353,22.832,0.011
		c29.182-21.537,55.366-46.041,73.826-77.645C218.678,225.923,224.004,212.994,229.96,200.767z"/>
	<path class="st1" d="M126.668,296.888C82.236,259.38,53.677,213.52,47.953,155.027c-0.284-2.904-0.283-5.158,3.31-6.684
		c27.745-11.782,52.315-28.348,73.584-49.756c0.345-0.347,0.781-0.604,1.445-1.109c0.838,0.633,1.803,1.202,2.573,1.967
		c20.923,20.766,44.927,36.999,72.014,48.582c3.462,1.48,4.295,3.364,4.024,6.764c-2.084,26.114-10.131,50.379-21.85,73.684
		C169.455,255.517,148.714,276.493,126.668,296.888z"/>
</g>
<g>
	<path class="st0" d="M24.224,356.566c0.014,0.882-0.157,1.603-0.515,2.163c-0.356,0.56-0.791,0.997-1.302,1.312
		c-0.512,0.314-1.05,0.532-1.617,0.65c-0.567,0.119-1.047,0.179-1.438,0.179h-3.276v-13.629h3.886c0.405,0,0.794,0.081,1.165,0.241
		c0.371,0.161,0.693,0.378,0.966,0.651c0.273,0.272,0.49,0.595,0.651,0.966s0.241,0.76,0.241,1.165c0,0.448-0.062,0.841-0.188,1.177
		s-0.277,0.619-0.452,0.851c-0.175,0.23-0.364,0.409-0.566,0.535c-0.203,0.126-0.382,0.196-0.536,0.21
		c0.561,0.112,1.058,0.309,1.491,0.588c0.364,0.238,0.7,0.592,1.008,1.061C24.049,355.156,24.21,355.782,24.224,356.566z
		 M20.885,350.644c0-0.49-0.168-0.903-0.504-1.239s-0.749-0.504-1.239-0.504h-1.008v3.507h1.008c0.49,0,0.903-0.172,1.239-0.515
		S20.885,351.134,20.885,350.644z M22.061,356.628c0-0.35-0.066-0.683-0.199-0.997c-0.134-0.315-0.315-0.592-0.546-0.83
		c-0.231-0.237-0.504-0.423-0.819-0.557c-0.315-0.133-0.647-0.199-0.997-0.199h-1.365v5.188h1.365c0.35,0,0.682-0.07,0.997-0.21
		s0.588-0.326,0.819-0.557c0.23-0.231,0.412-0.504,0.546-0.819C21.994,357.333,22.061,356.993,22.061,356.628z"/>
	<path class="st0" d="M29.578,347.2v10.185c0,0.378,0.088,0.697,0.263,0.956s0.396,0.451,0.661,0.577
		c0.267,0.126,0.554,0.189,0.861,0.189s0.592-0.066,0.851-0.2c0.259-0.133,0.479-0.325,0.661-0.577
		c0.183-0.252,0.273-0.567,0.273-0.945V347.2h2.058v10.143c0,0.826-0.192,1.513-0.577,2.059s-0.868,0.959-1.449,1.238
		c-0.581,0.28-1.211,0.421-1.89,0.421c-0.68,0-1.306-0.137-1.88-0.41c-0.574-0.272-1.054-0.683-1.438-1.229s-0.57-1.231-0.557-2.058
		V347.2H29.578z"/>
	<path class="st0" d="M43.166,352.282c0.476,0.196,0.916,0.424,1.322,0.683s0.753,0.566,1.04,0.924
		c0.286,0.356,0.507,0.763,0.661,1.218s0.231,0.983,0.231,1.586c0,0.574-0.119,1.127-0.357,1.659s-0.557,0.997-0.955,1.396
		c-0.399,0.398-0.865,0.717-1.396,0.955c-0.532,0.238-1.093,0.357-1.681,0.357c-0.322,0-0.644-0.025-0.966-0.074
		s-0.623-0.115-0.902-0.199c-0.28-0.084-0.536-0.175-0.767-0.273c-0.231-0.098-0.41-0.188-0.536-0.272v-2.604
		c0.098,0.154,0.252,0.312,0.462,0.473c0.21,0.161,0.452,0.315,0.725,0.462c0.273,0.147,0.563,0.267,0.872,0.357
		c0.308,0.091,0.608,0.137,0.902,0.137c0.672,0,1.211-0.2,1.617-0.599c0.406-0.399,0.658-0.899,0.756-1.502
		c0.098-0.686-0.06-1.242-0.473-1.669s-0.976-0.802-1.69-1.124c-0.364-0.168-0.717-0.356-1.061-0.566
		c-0.343-0.21-0.644-0.466-0.902-0.767c-0.26-0.301-0.47-0.647-0.63-1.04c-0.161-0.392-0.242-0.847-0.242-1.364
		c0-0.589,0.112-1.1,0.336-1.533c0.225-0.434,0.508-0.788,0.851-1.061c0.343-0.273,0.718-0.479,1.124-0.62
		c0.405-0.14,0.783-0.21,1.134-0.21c0.322,0,0.626,0.019,0.913,0.053c0.287,0.035,0.543,0.073,0.767,0.115
		c0.252,0.057,0.497,0.119,0.735,0.189v2.52c-0.154-0.182-0.336-0.35-0.546-0.504c-0.183-0.126-0.413-0.241-0.693-0.347
		c-0.28-0.104-0.602-0.157-0.966-0.157c-0.28,0-0.519,0.05-0.714,0.147c-0.196,0.098-0.357,0.221-0.483,0.367
		c-0.126,0.147-0.217,0.309-0.272,0.483c-0.057,0.175-0.084,0.339-0.084,0.493c0,0.322,0.095,0.605,0.283,0.851
		c0.189,0.245,0.402,0.444,0.641,0.599C42.487,352.001,42.802,352.156,43.166,352.282z"/>
	<path class="st0" d="M50.096,347.22h2.121v13.65h-2.121V347.22z"/>
	<path class="st0" d="M58.58,360.871h-1.953V346.78l6.762,8.609v-8.169h1.975v14.092l-6.783-8.716V360.871z"/>
	<path class="st0" d="M69.773,347.2h5.923v1.806h-3.822v5.565h3.822v1.827h-3.822v2.646h4.074v1.827h-6.175V347.2z"/>
	<path class="st0" d="M83.423,352.282c0.476,0.196,0.916,0.424,1.322,0.683s0.753,0.566,1.04,0.924
		c0.286,0.356,0.507,0.763,0.661,1.218s0.231,0.983,0.231,1.586c0,0.574-0.119,1.127-0.357,1.659s-0.557,0.997-0.955,1.396
		c-0.399,0.398-0.865,0.717-1.396,0.955c-0.532,0.238-1.093,0.357-1.681,0.357c-0.322,0-0.644-0.025-0.966-0.074
		s-0.623-0.115-0.902-0.199c-0.28-0.084-0.536-0.175-0.767-0.273c-0.231-0.098-0.41-0.188-0.536-0.272v-2.604
		c0.098,0.154,0.252,0.312,0.462,0.473c0.21,0.161,0.452,0.315,0.725,0.462c0.273,0.147,0.563,0.267,0.872,0.357
		c0.308,0.091,0.608,0.137,0.902,0.137c0.672,0,1.211-0.2,1.617-0.599c0.406-0.399,0.658-0.899,0.756-1.502
		c0.098-0.686-0.06-1.242-0.473-1.669s-0.976-0.802-1.69-1.124c-0.364-0.168-0.717-0.356-1.061-0.566
		c-0.343-0.21-0.644-0.466-0.902-0.767c-0.26-0.301-0.47-0.647-0.63-1.04c-0.161-0.392-0.242-0.847-0.242-1.364
		c0-0.589,0.112-1.1,0.336-1.533c0.225-0.434,0.508-0.788,0.851-1.061c0.343-0.273,0.718-0.479,1.124-0.62
		c0.405-0.14,0.783-0.21,1.134-0.21c0.322,0,0.626,0.019,0.913,0.053c0.287,0.035,0.543,0.073,0.767,0.115
		c0.252,0.057,0.497,0.119,0.735,0.189v2.52c-0.154-0.182-0.336-0.35-0.546-0.504c-0.183-0.126-0.413-0.241-0.693-0.347
		c-0.28-0.104-0.602-0.157-0.966-0.157c-0.28,0-0.519,0.05-0.714,0.147c-0.196,0.098-0.357,0.221-0.483,0.367
		c-0.126,0.147-0.217,0.309-0.272,0.483c-0.057,0.175-0.084,0.339-0.084,0.493c0,0.322,0.095,0.605,0.283,0.851
		c0.189,0.245,0.402,0.444,0.641,0.599C82.743,352.001,83.059,352.156,83.423,352.282z"/>
	<path class="st0" d="M93.923,352.282c0.476,0.196,0.916,0.424,1.322,0.683s0.753,0.566,1.04,0.924
		c0.286,0.356,0.507,0.763,0.661,1.218s0.231,0.983,0.231,1.586c0,0.574-0.119,1.127-0.357,1.659s-0.557,0.997-0.955,1.396
		c-0.399,0.398-0.865,0.717-1.396,0.955c-0.532,0.238-1.093,0.357-1.681,0.357c-0.322,0-0.644-0.025-0.966-0.074
		s-0.623-0.115-0.902-0.199c-0.28-0.084-0.536-0.175-0.767-0.273c-0.231-0.098-0.41-0.188-0.536-0.272v-2.604
		c0.098,0.154,0.252,0.312,0.462,0.473c0.21,0.161,0.452,0.315,0.725,0.462c0.273,0.147,0.563,0.267,0.872,0.357
		c0.308,0.091,0.608,0.137,0.902,0.137c0.672,0,1.211-0.2,1.617-0.599c0.406-0.399,0.658-0.899,0.756-1.502
		c0.098-0.686-0.06-1.242-0.473-1.669s-0.976-0.802-1.69-1.124c-0.364-0.168-0.717-0.356-1.061-0.566
		c-0.343-0.21-0.644-0.466-0.902-0.767c-0.26-0.301-0.47-0.647-0.63-1.04c-0.161-0.392-0.242-0.847-0.242-1.364
		c0-0.589,0.112-1.1,0.336-1.533c0.225-0.434,0.508-0.788,0.851-1.061c0.343-0.273,0.718-0.479,1.124-0.62
		c0.405-0.14,0.783-0.21,1.134-0.21c0.322,0,0.626,0.019,0.913,0.053c0.287,0.035,0.543,0.073,0.767,0.115
		c0.252,0.057,0.497,0.119,0.735,0.189v2.52c-0.154-0.182-0.336-0.35-0.546-0.504c-0.183-0.126-0.413-0.241-0.693-0.347
		c-0.28-0.104-0.602-0.157-0.966-0.157c-0.28,0-0.519,0.05-0.714,0.147c-0.196,0.098-0.357,0.221-0.483,0.367
		c-0.126,0.147-0.217,0.309-0.272,0.483c-0.057,0.175-0.084,0.339-0.084,0.493c0,0.322,0.095,0.605,0.283,0.851
		c0.189,0.245,0.402,0.444,0.641,0.599C93.243,352.001,93.559,352.156,93.923,352.282z"/>
	<path class="st0" d="M117.422,347.01c0.252,0,0.511,0.021,0.776,0.063s0.518,0.091,0.756,0.146
		c0.238,0.057,0.455,0.116,0.651,0.179c0.196,0.063,0.343,0.123,0.441,0.179v2.247c-0.168-0.14-0.364-0.263-0.589-0.367
		c-0.224-0.105-0.455-0.196-0.692-0.273c-0.238-0.077-0.477-0.137-0.714-0.179c-0.238-0.042-0.455-0.062-0.651-0.062
		c-0.658,0-1.288,0.122-1.89,0.367c-0.603,0.245-1.131,0.596-1.586,1.05c-0.455,0.455-0.815,0.994-1.081,1.617
		c-0.267,0.623-0.399,1.312-0.399,2.068c0,0.784,0.14,1.491,0.42,2.121s0.651,1.166,1.113,1.606
		c0.462,0.441,0.983,0.781,1.564,1.019c0.581,0.238,1.165,0.357,1.754,0.357c0.615,0,1.147-0.074,1.596-0.221
		c0.447-0.147,0.924-0.389,1.428-0.725v2.268c-0.406,0.225-0.889,0.378-1.449,0.463c-0.56,0.084-1.147,0.126-1.764,0.126
		c-0.826,0-1.652-0.161-2.478-0.483c-0.827-0.322-1.565-0.784-2.216-1.386c-0.651-0.603-1.18-1.337-1.586-2.205
		s-0.608-1.855-0.608-2.961c0-0.994,0.178-1.918,0.535-2.772c0.357-0.854,0.854-1.596,1.491-2.226
		c0.637-0.63,1.396-1.124,2.278-1.48C115.406,347.189,116.371,347.01,117.422,347.01z"/>
	<path class="st0" d="M136.532,354.045c0,0.966-0.183,1.876-0.546,2.73c-0.364,0.854-0.865,1.6-1.502,2.236
		s-1.383,1.138-2.236,1.501c-0.854,0.364-1.764,0.547-2.729,0.547c-0.967,0-1.877-0.183-2.73-0.547
		c-0.854-0.363-1.596-0.864-2.226-1.501c-0.631-0.637-1.131-1.383-1.502-2.236c-0.371-0.854-0.557-1.765-0.557-2.73
		s0.186-1.876,0.557-2.729c0.371-0.854,0.871-1.6,1.502-2.236c0.63-0.638,1.371-1.142,2.226-1.513
		c0.854-0.37,1.764-0.557,2.73-0.557c0.966,0,1.875,0.187,2.729,0.557c0.854,0.371,1.6,0.875,2.236,1.513
		c0.637,0.637,1.138,1.382,1.502,2.236C136.349,352.169,136.532,353.08,136.532,354.045z M134.305,354.025
		c0-0.756-0.126-1.445-0.378-2.068s-0.595-1.162-1.028-1.617c-0.435-0.455-0.945-0.809-1.533-1.061s-1.211-0.378-1.869-0.378
		s-1.277,0.126-1.858,0.378c-0.581,0.252-1.089,0.605-1.522,1.061c-0.435,0.455-0.777,0.994-1.029,1.617s-0.378,1.312-0.378,2.068
		c0,0.784,0.144,1.49,0.431,2.121c0.287,0.63,0.661,1.169,1.123,1.616c0.463,0.448,0.987,0.795,1.575,1.04
		c0.588,0.245,1.184,0.367,1.785,0.367c0.588,0,1.166-0.122,1.732-0.367c0.567-0.245,1.067-0.592,1.502-1.04
		c0.434-0.447,0.783-0.986,1.05-1.616C134.172,355.515,134.305,354.809,134.305,354.025z"/>
	<path class="st0" d="M141.802,360.871h-1.953V346.78l6.762,8.609v-8.169h1.975v14.092l-6.783-8.716V360.871z"/>
	<path class="st0" d="M156.586,352.282c0.476,0.196,0.916,0.424,1.322,0.683s0.753,0.566,1.04,0.924
		c0.286,0.356,0.507,0.763,0.661,1.218s0.231,0.983,0.231,1.586c0,0.574-0.119,1.127-0.357,1.659s-0.557,0.997-0.955,1.396
		c-0.399,0.398-0.865,0.717-1.396,0.955c-0.532,0.238-1.093,0.357-1.681,0.357c-0.322,0-0.644-0.025-0.966-0.074
		s-0.623-0.115-0.902-0.199c-0.28-0.084-0.536-0.175-0.767-0.273c-0.231-0.098-0.41-0.188-0.536-0.272v-2.604
		c0.098,0.154,0.252,0.312,0.462,0.473c0.21,0.161,0.452,0.315,0.725,0.462c0.273,0.147,0.563,0.267,0.872,0.357
		c0.308,0.091,0.608,0.137,0.902,0.137c0.672,0,1.211-0.2,1.617-0.599c0.406-0.399,0.658-0.899,0.756-1.502
		c0.098-0.686-0.06-1.242-0.473-1.669s-0.976-0.802-1.69-1.124c-0.364-0.168-0.717-0.356-1.061-0.566
		c-0.343-0.21-0.644-0.466-0.902-0.767c-0.26-0.301-0.47-0.647-0.63-1.04c-0.161-0.392-0.242-0.847-0.242-1.364
		c0-0.589,0.112-1.1,0.336-1.533c0.225-0.434,0.508-0.788,0.851-1.061c0.343-0.273,0.718-0.479,1.124-0.62
		c0.405-0.14,0.783-0.21,1.134-0.21c0.322,0,0.626,0.019,0.913,0.053c0.287,0.035,0.543,0.073,0.767,0.115
		c0.252,0.057,0.497,0.119,0.735,0.189v2.52c-0.154-0.182-0.336-0.35-0.546-0.504c-0.183-0.126-0.413-0.241-0.693-0.347
		c-0.28-0.104-0.602-0.157-0.966-0.157c-0.28,0-0.519,0.05-0.714,0.147c-0.196,0.098-0.357,0.221-0.483,0.367
		c-0.126,0.147-0.217,0.309-0.272,0.483c-0.057,0.175-0.084,0.339-0.084,0.493c0,0.322,0.095,0.605,0.283,0.851
		c0.189,0.245,0.402,0.444,0.641,0.599C155.907,352.001,156.222,352.156,156.586,352.282z"/>
	<path class="st0" d="M165.574,347.2v10.185c0,0.378,0.088,0.697,0.263,0.956s0.396,0.451,0.661,0.577
		c0.267,0.126,0.554,0.189,0.861,0.189s0.592-0.066,0.851-0.2c0.259-0.133,0.479-0.325,0.661-0.577
		c0.183-0.252,0.273-0.567,0.273-0.945V347.2h2.058v10.143c0,0.826-0.192,1.513-0.577,2.059s-0.868,0.959-1.449,1.238
		c-0.581,0.28-1.211,0.421-1.89,0.421c-0.68,0-1.306-0.137-1.88-0.41c-0.574-0.272-1.054-0.683-1.438-1.229s-0.57-1.231-0.557-2.058
		V347.2H165.574z"/>
	<path class="st0" d="M177.712,359.043h3.675v1.827h-5.796v-13.65h2.1L177.712,359.043z"/>
	<path class="st0" d="M187.456,349.005v11.865h-2.079v-11.865h-2.268V347.2h6.614v1.806H187.456z"/>
	<path class="st0" d="M200.581,360.871h-2.289l-0.504-2.226h-3.318l-0.482,2.226h-2.289l3.443-13.65h1.995L200.581,360.871z
		 M196.109,350.434l-1.345,6.426h2.688L196.109,350.434z"/>
	<path class="st0" d="M205.769,360.871h-1.953V346.78l6.762,8.609v-8.169h1.975v14.092l-6.783-8.716V360.871z"/>
	<path class="st0" d="M223.052,347.01c0.252,0,0.511,0.021,0.776,0.063s0.518,0.091,0.756,0.146
		c0.238,0.057,0.455,0.116,0.651,0.179c0.196,0.063,0.343,0.123,0.441,0.179v2.247c-0.168-0.14-0.364-0.263-0.589-0.367
		c-0.224-0.105-0.455-0.196-0.692-0.273c-0.238-0.077-0.477-0.137-0.714-0.179c-0.238-0.042-0.455-0.062-0.651-0.062
		c-0.658,0-1.288,0.122-1.89,0.367c-0.603,0.245-1.131,0.596-1.586,1.05c-0.455,0.455-0.815,0.994-1.081,1.617
		c-0.267,0.623-0.399,1.312-0.399,2.068c0,0.784,0.14,1.491,0.42,2.121s0.651,1.166,1.113,1.606
		c0.462,0.441,0.983,0.781,1.564,1.019c0.581,0.238,1.165,0.357,1.754,0.357c0.615,0,1.147-0.074,1.596-0.221
		c0.447-0.147,0.924-0.389,1.428-0.725v2.268c-0.406,0.225-0.889,0.378-1.449,0.463c-0.56,0.084-1.147,0.126-1.764,0.126
		c-0.826,0-1.652-0.161-2.478-0.483c-0.827-0.322-1.565-0.784-2.216-1.386c-0.651-0.603-1.18-1.337-1.586-2.205
		s-0.608-1.855-0.608-2.961c0-0.994,0.178-1.918,0.535-2.772c0.357-0.854,0.854-1.596,1.491-2.226
		c0.637-0.63,1.396-1.124,2.278-1.48C221.035,347.189,222.001,347.01,223.052,347.01z"/>
	<path class="st0" d="M233.341,355.81v5.061h-2.205v-5.04l-3.107-8.61h2.289l1.974,6.111l2.037-6.111h2.184L233.341,355.81z"/>
</g>
</svg>