<!-- Generator: Adobe Illustrator 21.0.2, SVG Export Plug-In  -->
<svg version="1.1"
	 xmlns="http://www.w3.org/2000/svg" xmlns:xlink="http://www.w3.org/1999/xlink" xmlns:a="http://ns.adobe.com/AdobeSVGViewerExtensions/3.0/"
	 x="0px" y="0px" width="256px" height="256px" viewBox="0 0 256 256" style="enable-background:new 0 0 256 256;"
	 xml:space="preserve">
<style type="text/css">
	.st0{fill:#FFFFFF;}
</style>
<defs>
</defs>
<g>
	<g id="Layer_2_2_">
		<circle class="st0" cx="128" cy="128" r="128"/>
	</g>
	<g id="Layer_1_1_">
		<path d="M165.7,113c0,0,23.2,10.6,25.3,11.8c5.8,3.3,7.2,35.5,7.2,74.2H161c0-24.2-1.9-52.2-3.5-60.4l5.4-10.6h15.6L165.7,113z
			 M140.4,110.9l4.6,9.7c3.9,1.8,4.7,2.5,5.1,2.9c1.6,1.3,3.2,5.7,3.9,8.1l9.6-20.7l9.7-5.4c-3.9-7.5-2.8-24.7-2.8-24.7
			c0-8.6-1.2-25.8-18.7-25.8s-18.7,17.2-18.7,25.8c0,0,1.2,17.2-2.8,24.7L140.4,110.9z M154.1,199.1c0-33.5-2-64-7.7-67.2
			c-3-1.7-28.7-14.6-28.7-14.6l-9.3,55.1v-29.7l-4.6-8.6l4.6-5.1l-6.2-6.9L96,129l4.6,5.1l-4.6,8.6v29.7l-9.2-55.1
			c0,0-25.7,12.9-28.7,14.6c-5.2,3-7.7,31.8-7.7,67.2H154.1z M138.5,113c0,0-2.5,1.1-5.8,2.6c1,0.4,1.9,0.7,2.8,1.1L138.5,113z
			 M86.4,95.4l3.4,11.2v6.9l12.4,6.9l12.4-6.9v-6.9l3.4-11.2c0,0,2.3,0.2,3.5-1.1c2.5-2.5,3.9-8.6,2.4-11.8
			c-1.1-2.3-3.2-1.9-3.2-1.9s0-4.9,0-11.2c0-6.9-1.5-11.5-6.9-11.5c-1.9-4.2-6.3-6.5-11.7-6.5c-11.9,0-18.7,7.3-18.7,17
			c0,6.3,0,12.1,0,12.1s-2-0.5-3.2,1.9c-1.6,3.2-0.1,9.4,2.4,11.8C84.1,95.6,86.4,95.4,86.4,95.4z"/>
	</g>
</g>
</svg>